<?xml version="1.0" encoding="UTF-8"?>
<svg id="Layer_1" xmlns="http://www.w3.org/2000/svg" xmlns:xlink="http://www.w3.org/1999/xlink" version="1.1" viewBox="0 0 500 500">
  <!-- Generator: Adobe Illustrator 29.0.1, SVG Export Plug-In . SVG Version: 2.1.0 Build 192)  -->
  <defs>
    <style>
      .st0, .st1, .st2, .st3, .st4, .st5 {
        fill: none;
      }

      .st6, .st7, .st8, .st9, .st1, .st2, .st3, .st4, .st10, .st11, .st12, .st13, .st14, .st15, .st16, .st5, .st17, .st18, .st19, .st20 {
        stroke: #0d419d;
      }

      .st6, .st7, .st8, .st9, .st1, .st10, .st12, .st13, .st14, .st15, .st16, .st17, .st18, .st19, .st20 {
        stroke-width: .9px;
      }

      .st6, .st21, .st15 {
        fill: #263238;
      }

      .st6, .st12, .st14, .st16, .st17, .st19, .st20 {
        stroke-miterlimit: 10;
      }

      .st7 {
        opacity: .6;
      }

      .st7, .st8, .st9, .st1, .st2, .st3, .st4, .st10, .st11, .st13, .st15, .st5, .st18 {
        stroke-linecap: round;
        stroke-linejoin: round;
      }

      .st7, .st10, .st11, .st12, .st13, .st22 {
        fill: #fff;
      }

      .st7, .st12, .st13, .st16, .st17, .st19, .st20 {
        isolation: isolate;
      }

      .st8 {
        fill: #999;
      }

      .st9 {
        fill: #757575;
      }

      .st2 {
        stroke-width: .9px;
      }

      .st3 {
        stroke-width: .9px;
      }

      .st4, .st11 {
        stroke-width: .9px;
      }

      .st23 {
        clip-path: url(#clippath-11);
      }

      .st24 {
        clip-path: url(#clippath-10);
      }

      .st25 {
        clip-path: url(#clippath-12);
      }

      .st12 {
        opacity: .7;
      }

      .st26 {
        clip-path: url(#clippath-1);
      }

      .st27 {
        clip-path: url(#clippath-3);
      }

      .st28 {
        clip-path: url(#clippath-4);
      }

      .st29 {
        clip-path: url(#clippath-2);
      }

      .st30 {
        clip-path: url(#clippath-7);
      }

      .st31 {
        clip-path: url(#clippath-6);
      }

      .st32 {
        clip-path: url(#clippath-9);
      }

      .st33 {
        clip-path: url(#clippath-8);
      }

      .st34 {
        clip-path: url(#clippath-5);
      }

      .st13, .st17, .st35 {
        opacity: .4;
      }

      .st14, .st18, .st36 {
        fill: #0d419d;
      }

      .st16 {
        opacity: .3;
      }

      .st5 {
        stroke-width: 1.9px;
      }

      .st17, .st19, .st20 {
        fill-opacity: .7;
      }

      .st19 {
        opacity: .2;
      }

      .st20 {
        opacity: .5;
      }

      .st37 {
        clip-path: url(#clippath);
      }
    </style>
    <clipPath id="clippath">
      <polygon class="st0" points="252.9 247.4 246.6 366.8 167.1 362.6 167.8 350 173.4 243.2 223.4 245.8 252.9 247.4"/>
    </clipPath>
    <clipPath id="clippath-1">
      <polygon class="st0" points="200.1 333 123.4 354.3 91.4 239.1 123.1 230.3 168.1 217.8 197.1 322.3 200.1 333"/>
    </clipPath>
    <clipPath id="clippath-2">
      <path class="st0" d="M404.3,275l-11.6,43c-1,3.6-4.7,6.4-8.4,6.4h-66.4c-3.7,0-5.9-2.9-4.9-6.4l11.7-43c1-3.5,4.7-6.4,8.4-6.4h66.4c3.7,0,5.9,2.9,4.9,6.4h0Z"/>
    </clipPath>
    <clipPath id="clippath-3">
      <path class="st0" d="M371,358.7v7.8h-85.6v-7.8c0-3.2,2.6-5.8,5.8-5.8h74c2.7,0,4.9,1.8,5.6,4.2.1.5.2,1,.2,1.5h0Z"/>
    </clipPath>
    <clipPath id="clippath-4">
      <path class="st0" d="M282.6,364.4c-4.1,4.2,15.8,69.8,15.8,69.8-2.2,1.9-5.4,2.8-8.4,3.2-4.4.6-8.4.1-8.4.1,0,0-28.5-69.1-20.6-86.3,7.8-17.2,56.5-25,56.5-25l2.1-5.1,25.2-3.5,4.2,30.8s-4.1.4-10.3,1.2c-16.7,2.1-48.4,7.1-55.9,14.8h0Z"/>
    </clipPath>
    <clipPath id="clippath-5">
      <path class="st0" d="M268.6,302.2c-4.2-.7,25.6-26.8,25.6-26.8l14.3,9.7s-24.4,17.2-28.2,17.7c-3.8.5-11.7-.5-11.7-.5h0Z"/>
    </clipPath>
    <clipPath id="clippath-6">
      <path class="st0" d="M294.4,427.3l7.9,20.8s1.3,5.4-22.6,3.7l-13.2-1.1,27.9-23.3h0Z"/>
    </clipPath>
    <clipPath id="clippath-7">
      <path class="st0" d="M320.8,277.2s-1.2-2.8-1-7.1c0-.8.1-1.6.3-2.4l-1.6-2.5-2.1-3.3,2.4-9.6s15.2,2.9,16.4,7.2c1.1,4.3-14.4,17.7-14.4,17.7h0Z"/>
    </clipPath>
    <clipPath id="clippath-8">
      <path class="st0" d="M374.9,391s-11.8,7-20.2,21-15,33.7-4.7,36.1l9.8-.4,18.9-6.5-2-3.8s-16.5,8.8-19.4,8.8-6.5.7-8-.4,5.4-26.6,20.4-35c15-8.5,5.2-19.7,5.2-19.7h0Z"/>
    </clipPath>
    <clipPath id="clippath-9">
      <path class="st0" d="M376.4,448.1c-13.1,0-10.6-58.9-9.1-61.9,1.5-2.9,39.6-4.4,43.4-3.1,3.8,1.2,18.8,60,10.5,64.6l-44.8.4h0Z"/>
    </clipPath>
    <clipPath id="clippath-10">
      <path class="st0" d="M402,397.3l5.6,4.6c.3.3.4.8,0,1.1l-4.4,4.7c-.3.3-.8.3-1.1,0l-5.6-5.3c-.3-.3-.3-.8,0-1.1l4.3-4c.3-.3.7-.3,1,0h0Z"/>
    </clipPath>
    <clipPath id="clippath-11">
      <path class="st0" d="M383.5,421.3s25.3,2.1,37.7-1.1c0,0,2.4,1.7,3.6,5.1,1.1,3.4,3.5,15-3.6,18-7,3-32.3,2.4-35.7-1-3.4-3.4-2-20.9-2-20.9h0Z"/>
    </clipPath>
    <clipPath id="clippath-12">
      <path class="st0" d="M372.9,419.6s.9,16.8,2.5,20.6c0,0-3.9,2.3-8.1,0-4.3-2.3-3.6-16.8-2.7-16.7s8.3-3.9,8.3-3.9Z"/>
    </clipPath>
  </defs>
  <g id="Background_Simple">
    <g>
      <path class="st14" d="M407.3,260.5c0-72.8,10.9-92.1-28.5-153.6-39.4-61.5-136.1-75.1-209.2-29.5s-92.8,104.3-92.8,104.3c0,0-26.5,68.5,10.8,137.5,34.1,63.1,101.2,99,159.5,128.5h148.9c8.8-7.4,16.5-16.4,22.8-26.9,30.3-51-11.3-87.5-11.3-160.3h0Z"/>
      <path class="st12" d="M407.3,260.5c0-72.8,10.9-92.1-28.5-153.6-39.4-61.5-136.1-75.1-209.2-29.5s-92.8,104.3-92.8,104.3c0,0-26.5,68.5,10.8,137.5,34.1,63.1,101.2,99,159.5,128.5h148.9c8.8-7.4,16.5-16.4,22.8-26.9,30.3-51-11.3-87.5-11.3-160.3h0Z"/>
    </g>
  </g>
  <g id="Clocks">
    <g>
      <g>
        <path class="st1" d="M230.8,61.5c1.3,5.1.7-4.3,3.2-15.8s6.8-6.8,6.8-6.8"/>
        <line class="st1" x1="230" y1="49.8" x2="237.9" y2="46.5"/>
        <path class="st1" d="M244.4,42.6s-4.7,9.8,2.4,13.9"/>
        <path class="st1" d="M251.1,39.9s7.8,4.3,2.9,13.7"/>
        <line class="st1" x1="245.8" y1="45.9" x2="251.4" y2="50"/>
        <line class="st1" x1="250.2" y1="44.2" x2="245.8" y2="51.1"/>
      </g>
      <g>
        <path class="st1" d="M80,291.5s-13.2-.2-13.3,11.2"/>
        <path class="st1" d="M78.9,298.7c-.3-1.7-6.1-3.8-7,.6-1,4.4,6.2,1.8,8.4-.3,0,0-4.1,4-2.8,5.1"/>
        <path class="st1" d="M79.7,305.4s-1.7,2.2-3.6,1.1"/>
        <path class="st1" d="M91.3,297.7l-9.9,10.1s5-5.1,7.9-3.5c3.6,2-1.1,7.4-4.9,3.5"/>
        <path class="st1" d="M96.3,300.5s2.6,12.1-11,12.5"/>
      </g>
      <g>
        <polyline class="st1" points="273.8 95.2 278.6 96 278.7 106.9 289.2 87.7 305.8 90.4"/>
        <line class="st1" x1="291" y1="96.1" x2="298.3" y2="109"/>
        <line class="st1" x1="300.2" y1="97.6" x2="287.1" y2="107.1"/>
      </g>
      <g>
        <path class="st1" d="M208.3,114.6c-1.2-1.6-8.3-.4-6.9,4.6,1.4,5,7.3-1.7,8.4-5,0,0-1.9,6.4,0,6.8"/>
        <path class="st1" d="M213.7,109.4l-1.6,5.7s.8-2.8,2.2-2.8,1.1,2.9-1.1,2.3"/>
      </g>
      <g>
        <polyline class="st1" points="347 178.6 343.6 190.7 350.9 198.6"/>
        <line class="st1" x1="351.2" y1="183.5" x2="359.5" y2="190.5"/>
        <line class="st1" x1="356.9" y1="181.8" x2="353.3" y2="190.7"/>
        <path class="st1" d="M362.8,189.5s0,2.5-1,2.8"/>
        <line class="st1" x1="363.8" y1="180.8" x2="368.8" y2="184.5"/>
        <line class="st1" x1="370.7" y1="177.7" x2="365.7" y2="195.6"/>
        <polyline class="st1" points="371 171.5 379 180.6 375.6 190.6"/>
      </g>
      <g>
        <polygon class="st1" points="148.7 407.2 160.4 372.5 174.6 388.3 148.7 407.2"/>
        <polyline class="st1" points="171.1 390.8 168.1 387.4 171.3 384.6"/>
      </g>
      <g>
        <circle class="st1" cx="75.2" cy="201" r="11.9"/>
        <circle class="st1" cx="88.4" cy="190.6" r="13.2"/>
        <line class="st1" x1="77.5" y1="189.3" x2="75.9" y2="194.9"/>
        <line class="st1" x1="79.8" y1="190" x2="77.5" y2="198.1"/>
        <line class="st1" x1="82.2" y1="191.4" x2="79.8" y2="200.5"/>
        <line class="st1" x1="84.8" y1="194" x2="83.1" y2="202.7"/>
        <line class="st1" x1="86.3" y1="196.9" x2="84.8" y2="203.3"/>
        <path class="st1" d="M63.8,185.7c-1-.3-3.9,2.4-1.7,4.2,2.2,1.8,2.8-3,2.2-4.9,0,0,1.1,3.5,2.1,3.1"/>
        <path class="st1" d="M79.2,170.5l3.8,6.9s-1.9-3.5-.6-4.8c1.7-1.6,3.8,1.8,1.1,3.2"/>
      </g>
      <g>
        <line class="st1" x1="148.7" y1="169.6" x2="154.1" y2="174.7"/>
        <line class="st1" x1="154.1" y1="168.3" x2="149.6" y2="175"/>
        <line class="st1" x1="159.4" y1="170.3" x2="164.7" y2="168.2"/>
        <line class="st1" x1="167.3" y1="162.6" x2="170.6" y2="165.5"/>
        <line class="st1" x1="173.1" y1="159.2" x2="169" y2="173.4"/>
      </g>
      <path class="st1" d="M408.1,156.3l-.2-10.9h8.2s-4.5,2.5-2.5,8.4c2.1,5.9,5.5,2.5,5.5,2.5"/>
      <g>
        <polygon class="st1" points="394.2 341.7 403.5 335.3 415.9 336.1 416.7 351.8 407.6 358.3 396.4 357.5 394.2 341.7"/>
        <polyline class="st1" points="396.4 357.5 405.4 351 416.7 351.8"/>
        <line class="st1" x1="405.4" y1="351" x2="403.5" y2="335.3"/>
        <polyline class="st1" points="394.2 341.7 406.5 343.1 415.9 336.1"/>
        <line class="st1" x1="406.5" y1="343.1" x2="407.6" y2="358.3"/>
      </g>
      <g>
        <polygon class="st1" points="395.9 223.9 395.5 244.8 413.8 236.5 395.9 223.9"/>
        <line class="st1" x1="395.9" y1="223.9" x2="404.6" y2="240.6"/>
        <polyline class="st1" points="403.2 237.9 405.3 236.8 406.8 239.7"/>
      </g>
      <g>
        <line class="st1" x1="236.2" y1="221.9" x2="243.8" y2="230"/>
        <line class="st1" x1="243.8" y1="220.8" x2="237.4" y2="229.5"/>
        <path class="st1" d="M246.9,216.6s1.8-.7,2.1,1.1-2.6,4.2-2.6,4.2h4.3"/>
      </g>
      <g>
        <path class="st1" d="M118.2,100.3c.8-9.7,6.5-17.9,14.5-22.1"/>
        <path class="st1" d="M139.3,129.3c-7.1-1.7-13-6.1-16.8-12"/>
        <path class="st1" d="M173.2,104.7c-1.2,15.2-14.5,26.5-29.7,25.3"/>
        <path class="st1" d="M147.9,75c13.2,1.1,23.4,11.2,25.1,23.7"/>
        <path class="st1" d="M157.6,123.7c-4.1,2.3-8.8,3.4-13.8,3-13.4-1.1-23.4-12.8-22.3-26.2"/>
        <path class="st1" d="M123,93.7c3.8-9.8,13.6-16.4,24.6-15.5,13.4,1.1,23.4,12.8,22.3,26.2-.4,5.5-2.7,10.4-6.1,14.3"/>
        <polyline class="st1" points="143.3 85 145.7 102.5 159.2 98.3"/>
      </g>
      <g>
        <path class="st1" d="M355.5,136.5c-7.9,0-15.4-4.8-18.2-12.8-2.6-7.5-.3-15.4,5.2-20.5"/>
        <path class="st1" d="M373.4,123.6c-1.8,5.3-6,9.8-11.7,11.9"/>
        <path class="st1" d="M349,99.4c9.9-3.5,20.8,1.7,24.3,11.7"/>
        <path class="st1" d="M364.8,103.5c2.9,1.9,5.2,4.8,6.5,8.4,3.1,8.8-1.5,18.4-10.3,21.5-6.6,2.3-13.6.3-18-4.6"/>
        <path class="st1" d="M339.5,123c-3.1-8.8,1.5-18.4,10.3-21.5,3.3-1.2,6.7-1.2,9.8-.4"/>
        <polyline class="st1" points="348.9 107 355.3 117.4 349.5 125"/>
      </g>
      <g>
        <path class="st1" d="M220.5,401.9c0-5.3,2.7-9.9,6.7-12.7"/>
        <path class="st1" d="M246.9,412.4c-2.8,2.9-6.7,4.8-11.1,4.8-6.7,0-12.4-4.3-14.5-10.4"/>
        <path class="st1" d="M235.8,386.6c8.4,0,15.3,6.9,15.3,15.3"/>
        <path class="st1" d="M235.8,415.4c-7.5,0-13.5-6-13.5-13.5"/>
        <path class="st1" d="M225.3,393.4c2.5-3.1,6.3-5,10.5-5,7.5,0,13.5,6,13.5,13.5s-2.8,9.5-6.9,11.8"/>
        <polyline class="st1" points="233.7 411.1 235.8 401.9 232.9 394.4"/>
      </g>
    </g>
    <line class="st1" x1="57.5" y1="448.1" x2="442.5" y2="448.1"/>
  </g>
  <g id="Exam_sheets">
    <g>
      <g>
        <g>
          <polygon class="st22" points="252.9 247.4 246.6 366.8 167.1 362.6 167.8 350 173.4 243.2 223.4 245.9 252.9 247.4"/>
          <g class="st37">
            <polygon class="st19" points="228.1 317.4 210.1 318.8 215.4 341.4 167.8 350 173.4 243.2 223.4 245.9 228.1 317.4"/>
          </g>
          <polygon class="st1" points="252.9 247.4 246.6 366.8 167.1 362.6 167.8 350 173.4 243.2 223.4 245.9 252.9 247.4"/>
        </g>
        <line class="st5" x1="179" y1="251.4" x2="199.7" y2="252.5"/>
        <line class="st5" x1="178.8" y1="255.4" x2="192.9" y2="256.1"/>
        <g>
          <line class="st5" x1="183.4" y1="265" x2="242.8" y2="268.1"/>
          <line class="st5" x1="183.1" y1="269" x2="242.6" y2="272.1"/>
          <line class="st5" x1="182.9" y1="273.6" x2="233.6" y2="276.2"/>
        </g>
        <g>
          <rect class="st2" x="182.8" y="278" width="4.8" height="4.8" transform="translate(-104.5 450.6) rotate(-87)"/>
          <rect class="st2" x="191.6" y="278.4" width="4.8" height="4.8" transform="translate(-96.6 459.8) rotate(-87)"/>
          <rect class="st2" x="200.3" y="278.9" width="4.8" height="4.8" transform="translate(-88.8 469) rotate(-87)"/>
          <rect class="st2" x="209.1" y="279.3" width="4.8" height="4.8" transform="translate(-81 478.2) rotate(-87)"/>
        </g>
        <path class="st6" d="M180.2,264.8c0,.7-.6,1.2-1.3,1.1-.7,0-1.2-.6-1.1-1.3,0-.7.6-1.2,1.3-1.1.7,0,1.2.6,1.1,1.3h0Z"/>
        <g>
          <line class="st5" x1="182.1" y1="288.1" x2="241.6" y2="291.3"/>
          <line class="st5" x1="181.9" y1="292.1" x2="241.4" y2="295.2"/>
          <line class="st5" x1="181.7" y1="296.8" x2="232.4" y2="299.4"/>
        </g>
        <g>
          <rect class="st2" x="181.6" y="301.1" width="4.8" height="4.8" transform="translate(-128.8 471.3) rotate(-87)"/>
          <rect class="st2" x="190.3" y="301.6" width="4.8" height="4.8" transform="translate(-120.9 480.5) rotate(-87)"/>
          <rect class="st2" x="199.1" y="302" width="4.8" height="4.8" transform="translate(-113.1 489.7) rotate(-87)"/>
          <rect class="st2" x="207.9" y="302.5" width="4.8" height="4.8" transform="translate(-105.3 498.9) rotate(-87)"/>
        </g>
        <path class="st6" d="M179,288c0,.7-.6,1.2-1.3,1.1-.7,0-1.2-.6-1.1-1.3,0-.7.6-1.2,1.3-1.1.7,0,1.2.6,1.1,1.3h0Z"/>
        <g>
          <line class="st5" x1="180.9" y1="311.3" x2="240.4" y2="314.4"/>
          <line class="st5" x1="180.7" y1="315.3" x2="240.2" y2="318.4"/>
          <line class="st5" x1="180.5" y1="319.9" x2="231.2" y2="322.6"/>
        </g>
        <g>
          <rect class="st2" x="180.4" y="324.3" width="4.8" height="4.8" transform="translate(-153.1 492.1) rotate(-87)"/>
          <rect class="st2" x="189.1" y="324.7" width="4.8" height="4.8" transform="translate(-145.2 501.2) rotate(-87)"/>
          <rect class="st2" x="197.9" y="325.2" width="4.8" height="4.8" transform="translate(-137.4 510.4) rotate(-87)"/>
          <rect class="st2" x="206.6" y="325.6" width="4.8" height="4.8" transform="translate(-129.5 519.6) rotate(-87)"/>
        </g>
        <path class="st6" d="M177.8,311.1c0,.7-.6,1.2-1.3,1.1-.7,0-1.2-.6-1.1-1.3,0-.7.6-1.2,1.3-1.1.7,0,1.2.6,1.1,1.3h0Z"/>
        <g>
          <line class="st5" x1="179.7" y1="335.1" x2="239.1" y2="338.2"/>
          <line class="st5" x1="179.4" y1="339.1" x2="238.9" y2="342.2"/>
          <line class="st5" x1="179.2" y1="343.7" x2="229.9" y2="346.4"/>
        </g>
        <g>
          <rect class="st2" x="179.1" y="348.1" width="4.8" height="4.8" transform="translate(-178 513.3) rotate(-87)"/>
          <rect class="st2" x="187.9" y="348.5" width="4.8" height="4.8" transform="translate(-170.2 522.5) rotate(-87)"/>
          <rect class="st2" x="196.6" y="349" width="4.8" height="4.8" transform="translate(-162.3 531.7) rotate(-87)"/>
          <rect class="st2" x="205.4" y="349.5" width="4.8" height="4.8" transform="translate(-154.5 540.9) rotate(-87)"/>
        </g>
        <path class="st6" d="M176.5,335c0,.7-.6,1.2-1.3,1.1s-1.2-.6-1.1-1.3c0-.7.6-1.2,1.3-1.1s1.2.6,1.1,1.3Z"/>
        <polyline class="st5" points="184.6 279.8 185.2 280.9 187.8 278.1"/>
        <polyline class="st5" points="200.9 303.6 201.5 304.7 204.1 301.9"/>
        <polyline class="st5" points="209.1 328.1 209.7 329.1 212.3 326.3"/>
        <polyline class="st5" points="189.7 349.9 190.3 351 192.9 348.1"/>
      </g>
      <g>
        <g>
          <polygon class="st22" points="200.1 333 123.4 354.3 91.4 239.1 123.1 230.3 168.1 217.8 197.1 322.3 200.1 333"/>
          <g class="st26">
            <polygon class="st19" points="197.1 322.3 137.8 326.2 123.1 230.3 168.1 217.8 197.1 322.3"/>
          </g>
          <polygon class="st1" points="200.1 333 123.4 354.3 91.4 239.1 123.1 230.3 168.1 217.8 197.1 322.3 200.1 333"/>
        </g>
        <line class="st5" x1="99.3" y1="245.1" x2="119.3" y2="239.5"/>
        <line class="st5" x1="100.4" y1="248.9" x2="113.9" y2="245.1"/>
        <g>
          <line class="st5" x1="107.8" y1="256.6" x2="165.1" y2="240.6"/>
          <line class="st5" x1="108.8" y1="260.4" x2="166.2" y2="244.5"/>
          <line class="st5" x1="110.1" y1="264.9" x2="159" y2="251.3"/>
        </g>
        <g>
          <rect class="st3" x="112" y="268.2" width="4.8" height="4.8" transform="translate(-68.3 40.5) rotate(-15.5)"/>
          <rect class="st3" x="120.4" y="265.8" width="4.8" height="4.8" transform="translate(-67.3 42.7) rotate(-15.5)"/>
          <rect class="st3" x="128.9" y="263.4" width="4.8" height="4.8" transform="translate(-66.4 44.9) rotate(-15.5)"/>
          <rect class="st3" x="137.3" y="261.1" width="4.8" height="4.8" transform="translate(-65.4 47) rotate(-15.5)"/>
        </g>
        <path class="st6" d="M104.7,257.4c.2.6-.2,1.3-.8,1.5s-1.3-.2-1.5-.9.2-1.3.8-1.5,1.3.2,1.5.9Z"/>
        <g>
          <line class="st5" x1="113.9" y1="278.9" x2="171.3" y2="263"/>
          <line class="st5" x1="115" y1="282.8" x2="172.4" y2="266.8"/>
          <line class="st5" x1="116.3" y1="287.2" x2="165.2" y2="273.6"/>
        </g>
        <g>
          <rect class="st3" x="118.2" y="290.5" width="4.8" height="4.8" transform="translate(-74 43) rotate(-15.5)"/>
          <rect class="st3" x="126.6" y="288.1" width="4.8" height="4.8" transform="translate(-73.1 45.2) rotate(-15.5)"/>
          <rect class="st3" x="135.1" y="285.8" width="4.8" height="4.8" transform="translate(-72.1 47.3) rotate(-15.5)"/>
          <rect class="st3" x="143.6" y="283.4" width="4.8" height="4.8" transform="translate(-71.2 49.5) rotate(-15.5)"/>
        </g>
        <path class="st6" d="M110.9,279.8c.2.6-.2,1.3-.8,1.5s-1.3-.2-1.5-.9.2-1.3.8-1.5,1.3.2,1.5.9Z"/>
        <g>
          <line class="st5" x1="120.2" y1="301.3" x2="177.5" y2="285.3"/>
          <line class="st5" x1="121.2" y1="305.1" x2="178.6" y2="289.1"/>
          <line class="st5" x1="122.5" y1="309.6" x2="171.4" y2="296"/>
        </g>
        <g>
          <rect class="st3" x="124.4" y="312.8" width="4.8" height="4.8" transform="translate(-79.8 45.5) rotate(-15.5)"/>
          <rect class="st3" x="132.9" y="310.5" width="4.8" height="4.8" transform="translate(-78.8 47.6) rotate(-15.5)"/>
          <rect class="st3" x="141.3" y="308.1" width="4.8" height="4.8" transform="translate(-77.9 49.8) rotate(-15.5)"/>
          <rect class="st3" x="149.8" y="305.8" width="4.8" height="4.8" transform="translate(-77 52) rotate(-15.5)"/>
        </g>
        <path class="st6" d="M117.1,302.1c.2.6-.2,1.3-.8,1.5s-1.3-.2-1.5-.9.2-1.3.8-1.5,1.3.2,1.5.9Z"/>
        <g>
          <line class="st5" x1="126.6" y1="324.2" x2="183.9" y2="308.3"/>
          <line class="st5" x1="127.6" y1="328.1" x2="185" y2="312.1"/>
          <line class="st5" x1="128.9" y1="332.5" x2="177.8" y2="318.9"/>
        </g>
        <g>
          <rect class="st3" x="130.8" y="335.8" width="4.8" height="4.8" transform="translate(-85.7 48) rotate(-15.5)"/>
          <rect class="st3" x="139.2" y="333.4" width="4.8" height="4.8" transform="translate(-84.8 50.2) rotate(-15.5)"/>
          <rect class="st3" x="147.7" y="331.1" width="4.8" height="4.8" transform="translate(-83.8 52.4) rotate(-15.5)"/>
          <rect class="st3" x="156.2" y="328.8" width="4.8" height="4.8" transform="translate(-82.9 54.5) rotate(-15.5)"/>
        </g>
        <path class="st6" d="M123.5,325.1c.2.6-.2,1.3-.8,1.5s-1.3-.2-1.5-.9.2-1.3.8-1.5,1.3.2,1.5.9Z"/>
        <polyline class="st5" points="121.6 268 122.5 268.9 124.1 265.4"/>
        <polyline class="st5" points="119.3 293 120.2 293.8 121.8 290.3"/>
        <polyline class="st5" points="125.5 315.1 126.4 315.9 128 312.4"/>
        <polyline class="st5" points="148.8 333.2 149.7 334 151.3 330.5"/>
      </g>
      <g>
        <rect class="st11" x="133.9" y="194.7" width="79.6" height="119.6" transform="translate(-23.6 17.8) rotate(-5.5)"/>
        <line class="st5" x1="135.1" y1="206.1" x2="155.7" y2="204.1"/>
        <line class="st5" x1="135.5" y1="210" x2="149.5" y2="208.7"/>
        <g>
          <line class="st5" x1="141.4" y1="218.9" x2="200.7" y2="213.2"/>
          <line class="st5" x1="141.8" y1="222.8" x2="201.1" y2="217.1"/>
          <line class="st5" x1="142.2" y1="227.4" x2="192.8" y2="222.6"/>
        </g>
        <g>
          <rect class="st4" x="143.1" y="231.4" width="4.8" height="4.8" transform="translate(-21.7 15) rotate(-5.5)"/>
          <rect class="st4" x="151.9" y="230.5" width="4.8" height="4.8" transform="translate(-21.6 15.8) rotate(-5.5)"/>
          <rect class="st4" x="160.6" y="229.7" width="4.8" height="4.8" transform="translate(-21.5 16.7) rotate(-5.5)"/>
          <rect class="st4" x="169.3" y="228.9" width="4.8" height="4.8" transform="translate(-21.3 17.5) rotate(-5.5)"/>
        </g>
        <path class="st6" d="M138.2,219.2c0,.7-.4,1.3-1.1,1.3-.7,0-1.3-.4-1.3-1.1,0-.7.4-1.3,1.1-1.3.7,0,1.3.4,1.3,1.1Z"/>
        <g>
          <line class="st5" x1="143.6" y1="241.9" x2="202.9" y2="236.3"/>
          <line class="st5" x1="144" y1="245.9" x2="203.3" y2="240.2"/>
          <line class="st5" x1="144.4" y1="250.5" x2="195" y2="245.7"/>
        </g>
        <g>
          <rect class="st4" x="145.3" y="254.5" width="4.8" height="4.8" transform="translate(-23.9 15.3) rotate(-5.5)"/>
          <rect class="st4" x="154.1" y="253.6" width="4.8" height="4.8" transform="translate(-23.8 16.1) rotate(-5.5)"/>
          <rect class="st4" x="162.8" y="252.8" width="4.8" height="4.8" transform="translate(-23.7 17) rotate(-5.5)"/>
          <rect class="st4" x="171.5" y="251.9" width="4.8" height="4.8" transform="translate(-23.5 17.8) rotate(-5.5)"/>
        </g>
        <path class="st6" d="M140.5,242.3c0,.7-.4,1.3-1.1,1.3s-1.3-.4-1.3-1.1c0-.7.4-1.3,1.1-1.3.7,0,1.3.4,1.3,1.1Z"/>
        <g>
          <line class="st5" x1="145.8" y1="265" x2="205.1" y2="259.3"/>
          <line class="st5" x1="146.2" y1="269" x2="205.5" y2="263.3"/>
          <line class="st5" x1="146.7" y1="273.6" x2="197.2" y2="268.7"/>
        </g>
        <g>
          <rect class="st4" x="147.5" y="277.5" width="4.8" height="4.8" transform="translate(-26.1 15.6) rotate(-5.5)"/>
          <rect class="st4" x="156.3" y="276.7" width="4.8" height="4.8" transform="translate(-26 16.5) rotate(-5.5)"/>
          <rect class="st4" x="165" y="275.9" width="4.8" height="4.8" transform="translate(-25.9 17.3) rotate(-5.5)"/>
          <rect class="st4" x="173.8" y="275" width="4.8" height="4.8" transform="translate(-25.7 18.1) rotate(-5.5)"/>
        </g>
        <path class="st6" d="M142.7,265.3c0,.7-.4,1.3-1.1,1.3s-1.3-.4-1.3-1.1c0-.7.4-1.3,1.1-1.3s1.3.4,1.3,1.1Z"/>
        <g>
          <line class="st5" x1="148.1" y1="288.8" x2="207.4" y2="283.1"/>
          <line class="st5" x1="148.5" y1="292.7" x2="207.8" y2="287"/>
          <line class="st5" x1="148.9" y1="297.3" x2="199.5" y2="292.5"/>
        </g>
        <g>
          <rect class="st4" x="149.8" y="301.3" width="4.8" height="4.8" transform="translate(-28.4 16) rotate(-5.5)"/>
          <rect class="st4" x="158.6" y="300.4" width="4.8" height="4.8" transform="translate(-28.2 16.8) rotate(-5.5)"/>
          <rect class="st4" x="167.3" y="299.6" width="4.8" height="4.8" transform="translate(-28.1 17.6) rotate(-5.5)"/>
          <rect class="st4" x="176" y="298.8" width="4.8" height="4.8" transform="translate(-28 18.5) rotate(-5.5)"/>
        </g>
        <path class="st6" d="M145,289.1c0,.7-.4,1.3-1.1,1.3s-1.3-.4-1.3-1.1c0-.7.4-1.3,1.1-1.3s1.3.4,1.3,1.1Z"/>
        <polyline class="st5" points="144.8 233.4 145.6 234.4 147.7 231.2"/>
        <polyline class="st5" points="164.5 254.5 165.2 255.5 167.4 252.3"/>
        <polyline class="st5" points="158 278.9 158.8 279.9 160.9 276.7"/>
        <polyline class="st5" points="177.6 300.8 178.4 301.7 180.5 298.5"/>
      </g>
    </g>
  </g>
  <g id="Bubble">
    <g>
      <path class="st10" d="M304.4,144.3h-49.2c-3.6,0-6.6,2.9-6.6,6.6v42.2c0,3.6,2.9,6.6,6.6,6.6h21.8l12.5,15.1-3.1-15.1h18c3.6,0,6.5-2.9,6.5-6.6v-42.2c0-3.6-2.9-6.6-6.5-6.6h0Z"/>
      <g>
        <path class="st14" d="M283.7,167.4v-4.5l-3.4-.3c-.2-.7-.5-1.4-.8-2l2.2-2.6-3.2-3.2-2.6,2.2c-.6-.4-1.3-.6-2-.8l-.3-3.4h-4.5l-.3,3.4c-.7.2-1.4.5-2,.8l-2.6-2.2-3.2,3.2,2.2,2.6c-.4.6-.6,1.3-.8,2l-3.4.3v4.5l3.4.3c.2.7.5,1.4.8,2l-2.2,2.6,3.2,3.2,2.6-2.2c.6.4,1.3.6,2,.8l.3,3.4h4.5l.3-3.4c.7-.2,1.4-.5,2-.8l2.6,2.2,3.2-3.2-2.2-2.6c.4-.6.6-1.3.8-2l3.4-.3ZM271.5,170.4c-2.9,0-5.2-2.3-5.2-5.2s2.3-5.2,5.2-5.2,5.2,2.3,5.2,5.2-2.3,5.2-5.2,5.2Z"/>
        <path class="st14" d="M298.5,177.4v-3.2l-2.4-.2c-.1-.5-.3-1-.6-1.4l1.5-1.8-2.2-2.2-1.8,1.5c-.5-.2-.9-.4-1.4-.6l-.2-2.4h-3.2l-.2,2.4c-.5.1-1,.3-1.4.6l-1.8-1.5-2.2,2.2,1.5,1.8c-.2.4-.5.9-.6,1.4l-2.4.2v3.2l2.4.2c.1.5.3,1,.6,1.4l-1.5,1.8,2.2,2.2,1.8-1.5c.5.2.9.4,1.4.6l.2,2.4h3.2l.2-2.4c.5-.1,1-.3,1.4-.6l1.8,1.5,2.2-2.2-1.5-1.8c.2-.4.5-.9.6-1.4l2.4-.2ZM289.8,179.6c-2,0-3.7-1.7-3.7-3.7s1.7-3.7,3.7-3.7,3.7,1.7,3.7,3.7-1.7,3.7-3.7,3.7Z"/>
        <path class="st14" d="M283,184.9v-2.3h-1.7c-.1-.5-.2-.8-.4-1.2l1.1-1.3-1.6-1.6-1.3,1.1c-.3-.2-.7-.3-1-.4v-1.7h-2.4v1.7c-.5.1-.8.2-1.2.4l-1.3-1.1-1.6,1.6,1.1,1.3c-.2.3-.3.7-.4,1h-1.7v2.4h1.7c.1.5.2.8.4,1.2l-1.1,1.3,1.6,1.6,1.3-1.1c.3.2.7.3,1,.4v1.7h2.4v-1.7c.5-.1.8-.2,1.2-.4l1.3,1.1,1.6-1.6-1.1-1.3c.2-.3.3-.7.4-1h1.7ZM276.7,186.4c-1.5,0-2.6-1.2-2.6-2.6s1.2-2.6,2.6-2.6,2.6,1.2,2.6,2.6-1.2,2.6-2.6,2.6Z"/>
      </g>
    </g>
  </g>
  <g id="Character">
    <g>
      <g>
        <polygon class="st9" points="278.5 306.7 316.8 448.1 322.5 448.1 284.2 306.7 278.5 306.7"/>
        <rect class="st8" x="292.1" y="408" width="72.6" height="5.9"/>
        <path class="st9" d="M403.6,274.9l-46.9,173.2h-5.7l46.9-173.2c1.7-6.4-2.2-11.6-8.9-11.6h-40.4c-6.6,0-13.4,5.2-15.1,11.6l-46.9,173.2h-5.7l46.9-173.2c2.6-9.5,12.6-17.1,22.4-17.1h40.4c9.8,0,15.6,7.7,13.1,17.1h0Z"/>
        <g>
          <path class="st36" d="M404.3,275l-11.6,43c-1,3.5-4.7,6.4-8.4,6.4h-66.4c-3.7,0-5.9-2.9-4.9-6.4l11.7-43c1-3.5,4.7-6.4,8.4-6.4h66.4c3.7,0,5.9,2.9,4.9,6.4h0Z"/>
          <g class="st29">
            <path class="st19" d="M404.3,275l-11.6,43c-1,3.5-4.7,6.4-8.4,6.4h-66.4c-3.7,0-5.9-2.9-4.9-6.4l11.7-43c1-3.5,4.7-6.4,8.4-6.4h34.4c14.9,15.2,13,43.3,12,51.8,3-.7,5.8-3.2,6.6-6.2l11.7-43c.2-.9.3-1.8.1-2.6h1.7c3.7,0,5.9,2.9,4.9,6.4h0Z"/>
          </g>
          <path class="st1" d="M404.3,275l-11.6,43c-1,3.5-4.7,6.4-8.4,6.4h-66.4c-3.7,0-5.9-2.9-4.9-6.4l11.7-43c1-3.5,4.7-6.4,8.4-6.4h66.4c3.7,0,5.9,2.9,4.9,6.4h0Z"/>
        </g>
        <polygon class="st9" points="365.2 367.9 387 448.1 392.7 448.1 371 367.9 365.2 367.9"/>
        <g>
          <path class="st36" d="M371,358.7v7.8h-85.6v-7.8c0-3.2,2.6-5.8,5.8-5.8h74c2.7,0,4.9,1.8,5.6,4.2.1.5.2,1,.2,1.5h0Z"/>
          <g class="st27">
            <path class="st19" d="M370.8,357.2c-2.8,3.2-7.7,6.6-16.3,9.4h-69.1v-7.8c0-3.2,2.6-5.8,5.8-5.8h74c2.7,0,4.9,1.8,5.6,4.2h0Z"/>
          </g>
          <path class="st1" d="M371,358.7v7.8h-85.6v-7.8c0-3.2,2.6-5.8,5.8-5.8h74c2.7,0,4.9,1.8,5.6,4.2.1.5.2,1,.2,1.5h0Z"/>
        </g>
        <rect class="st8" x="281.6" y="364.1" width="93.9" height="7.4" rx="1.6" ry="1.6"/>
      </g>
      <g>
        <g>
          <path class="st21" d="M282.6,364.4c-4.1,4.2,15.8,69.8,15.8,69.8-2.2,1.9-5.4,2.8-8.4,3.2-4.4.6-8.4.1-8.4.1,0,0-28.5-69.1-20.6-86.3,7.8-17.1,56.5-25,56.5-25l2.1-5.1,25.2-3.5,4.2,30.8s-4.1.4-10.3,1.2c-16.7,2.1-48.4,7.1-55.9,14.8h0Z"/>
          <g class="st28">
            <path class="st16" d="M298.4,434.2c-2.2,1.9-5.4,2.8-8.4,3.2-5.5-20.6-19.6-75.4-14.3-82.1,6.6-8.3,39.1-15.8,39.1-15.8.1-4.2,11.5-8,11.5-8l12.1,18.2c-16.7,2.1-48.4,7.1-55.9,14.8-4.1,4.2,15.8,69.8,15.8,69.8h0Z"/>
          </g>
          <path class="st1" d="M282.6,364.4c-4.1,4.2,15.8,69.8,15.8,69.8-2.2,1.9-5.4,2.8-8.4,3.2-4.4.6-8.4.1-8.4.1,0,0-28.5-69.1-20.6-86.3,7.8-17.1,56.5-25,56.5-25l2.1-5.1,25.2-3.5,4.2,30.8s-4.1.4-10.3,1.2c-16.7,2.1-48.4,7.1-55.9,14.8h0Z"/>
        </g>
        <g>
          <path class="st22" d="M268.6,302.2c-4.2-.7,25.6-26.8,25.6-26.8l14.3,9.6s-24.4,17.2-28.2,17.6-11.7-.5-11.7-.5h0Z"/>
          <g class="st34">
            <path class="st19" d="M268.6,302.2c-4.2-.7,25.6-26.8,25.6-26.8l14.3,9.6s-24.4,17.2-28.2,17.6-11.7-.5-11.7-.5h0Z"/>
          </g>
          <path class="st1" d="M268.6,302.2c-4.2-.7,25.6-26.8,25.6-26.8l14.3,9.6s-24.4,17.2-28.2,17.6-11.7-.5-11.7-.5h0Z"/>
        </g>
        <g>
          <path class="st10" d="M273.8,291.3s6.2,1.5,8.1,2.9,1.4,6,1.4,6c0,0-8.3-2.4-9.5-8.9h0Z"/>
          <polygon class="st6" points="269.8 279.3 281.4 301.6 282.8 301.6 271.8 278.2 269.8 279.3"/>
          <path class="st10" d="M280.3,295.4s-7.3-5.2-9.1-5.2-7.1,6.3-7.1,9.5,11.7,4.9,14,2.2c1.1-1.3-1.1-4.6-1.1-4.6,0,0,3.4,3.5,4.4,4s2.8-.2,2.8-.2c0,0-2.4-3.9-3.7-5.8h0Z"/>
          <path class="st1" d="M276.9,302.7s-2.8-3.6-6.1-5.3"/>
          <path class="st1" d="M276.9,297.4s-2.5-2.2-4.2-2.7"/>
          <path class="st1" d="M268.9,300.2s4.1,2.1,5.1,3.1"/>
        </g>
        <g>
          <path class="st18" d="M303.4,264c-3.8,2.6-20.5,19.9-20.5,19.9,0,0,7.9,9,14.8,10.2l18.7-9.1-12.9-21h0Z"/>
          <path class="st13" d="M303.4,264c-3.8,2.6-20.5,19.9-20.5,19.9,0,0,7.9,9,14.8,10.2l18.7-9.1-12.9-21h0Z"/>
        </g>
        <g>
          <path class="st36" d="M294.4,427.3l7.9,20.8s1.3,5.4-22.6,3.7l-13.2-1.1,27.9-23.3h0Z"/>
          <g class="st31">
            <path class="st16" d="M294.4,427.3l7.9,20.8s1.3,5.4-22.6,3.7l-13.2-1.1,27.9-23.3h0Z"/>
          </g>
          <path class="st1" d="M294.4,427.3l7.9,20.8s1.3,5.4-22.6,3.7l-13.2-1.1,27.9-23.3h0Z"/>
        </g>
        <path class="st18" d="M291.4,437.2s1.7,8.1,0,14.1c0,0-25.2,4-30.9,2.5-5.6-1.5-9.1-4.3-9.2-5.7,0,0,.2-3.9,5.8-5,5.6-1.1,16.9-1.9,21.3-8.3s12.9,2.5,12.9,2.5h0Z"/>
        <path class="st15" d="M324.7,320.3c8.1-11.5,45.1,2.3,45.1,2.3,0,0,3.5,27.7-11.2,35-14.8,7.4-36,7-41.8,13l-23.4,69.1s-8.4,3.5-20.6-2c0,0,14.9-52.2,19.2-70.7,4.3-18.3,32.2-30.8,32.2-30.8,0,0-2.4-2.7-3.2-5.8"/>
        <path class="st1" d="M362.2,346.8c-1.2,1.1-2.4,2-3.7,2.9"/>
        <path class="st1" d="M365.2,323.4c3,6.6,3.2,14.9-1,21"/>
        <path class="st1" d="M356.8,324.4s-.8,5.1,1.5,7.1,9.2,3,9.2,3"/>
        <path class="st1" d="M326.4,324.6s.3,5-1.7,4.8-2.1,2-2.1,2"/>
        <g>
          <path class="st18" d="M303.9,267.9c-.3-1.3-.5-2.6-.5-3.9,0,0,11.5-9.6,26.1-9.6,17.5,0,28.2,5.6,32.5,13.2,6.8,12.1,7.7,55,7.7,55,0,0-43.9,6.8-50.2-1.5-1.1-1.4-.3-11.7-.3-11.7,0,0-4.9-12.9-6-22.9,0,0-1.9-2.5-4-6.2-1.4-2.4-2.9-5.3-4-8.2"/>
          <path class="st7" d="M303.9,267.9c-.3-1.3-.5-2.6-.5-3.9,0,0,11.5-9.6,26.1-9.6,17.5,0,28.2,5.6,32.5,13.2,6.8,12.1,7.7,55,7.7,55,0,0-43.9,6.8-50.2-1.5-1.1-1.4-.3-11.7-.3-11.7,0,0-4.9-12.9-6-22.9,0,0-1.9-2.5-4-6.2-1.4-2.4-2.9-5.3-4-8.2"/>
          <path class="st1" d="M320.8,278.2s6.7,26,5.7,31.8c-.5,2.8,1,5.8,1,5.8,0,0-3.1,3-1,7"/>
          <path class="st1" d="M338.5,299.8c-1.3-.1-2.5-.4-3.4-1.1l-2-8.7s6.1.7,11.8-.8l2.1,9.5s-1.6.5-3.6.8"/>
          <path class="st18" d="M316,281.6s-5.7-24.3,8.7-27.1c14.4-2.8,17.4,3.9,16.5,8.5-1.1,6.1-13.1,21-13.1,21l-7.4-5.7-4.8,3.4h0Z"/>
          <path class="st13" d="M316,281.6s-5.7-24.3,8.7-27.1c14.4-2.8,17.4,3.9,16.5,8.5-1.1,6.1-13.1,21-13.1,21l-7.4-5.7-4.8,3.4h0Z"/>
        </g>
        <path class="st1" d="M297.1,356.7s9.3-10.7,30.3-18.9c0,0-5.4-1.7-6.6-3.9"/>
        <line class="st1" x1="286.1" y1="389.6" x2="277.6" y2="420.5"/>
        <path class="st18" d="M351.9,300.6s3.8,6.4,19.5,5.8c0,0-4.3-4.9-10.7-6.6-6.4-1.7-8.8.8-8.8.8h0Z"/>
        <path class="st10" d="M291.1,303.2s3.6-5.6,7-6.8c3.3-1.1,13.1-1.2,14.6-1.3,1.5,0,28.4,6.8,41,11l-1.1-21,17,1.3s-.7,25.7-3.3,32.5-6.4,5.1-12.9,2.4c-25.3-10.9-40.2-18.5-41.6-18.1s-20.7,0-20.7,0h0s0,0,0,0Z"/>
        <g>
          <path class="st18" d="M348.3,272.9c-.5,1.8-.6,3.7-.4,5.4.8,6.6,4,22.4,4,22.4,0,0,15.8,2.3,19.5,5.8,0,0,2.6-21-2.7-31.6-5.3-10.6-10.8-11.8-10.8-11.8-3.5-.9-6.6,2.4-8.4,6.5"/>
          <g class="st35">
            <path class="st10" d="M348.3,272.9c-.5,1.8-.6,3.7-.4,5.4.8,6.6,4,22.4,4,22.4,0,0,15.8,2.3,19.5,5.8,0,0,2.6-21-2.7-31.6-5.3-10.6-10.8-11.8-10.8-11.8-3.5-.9-6.6,2.4-8.4,6.5"/>
          </g>
        </g>
        <path class="st1" d="M301.9,281s3.1,2.8,8.1,4.1"/>
        <path class="st1" d="M351.9,281s5.8,10.8,12.9,13.2"/>
        <path class="st1" d="M314.9,364.1s1.1.8,1.5,3.7"/>
        <path class="st1" d="M311,367.8s2.9.2,4.6,2.7"/>
        <path class="st1" d="M279.5,356.7s3,1.5,2.4,5.9"/>
        <path class="st1" d="M276.3,360.5s4.2,2.5,4.5,4.7"/>
        <path class="st1" d="M324.5,333.8s9.3,1.3,11.3,0"/>
      </g>
      <g>
        <g>
          <path class="st22" d="M320.8,277.2s-1.2-2.8-1-7.1c0-.8.1-1.6.3-2.4l-1.6-2.5-2.1-3.3,2.4-9.6s15.2,2.9,16.4,7.2c1.1,4.3-14.4,17.7-14.4,17.7h0Z"/>
          <g class="st30">
            <path class="st19" d="M319.8,270.1c0-.8.1-1.6.3-2.4l-1.6-2.5c2.6-.5,5.5-1.7,7.4-4.2,0,0,.5,6.6-6.1,9.1h0Z"/>
          </g>
          <path class="st1" d="M320.8,277.2s-1.2-2.8-1-7.1c0-.8.1-1.6.3-2.4l-1.6-2.5-2.1-3.3,2.4-9.6s15.2,2.9,16.4,7.2c1.1,4.3-14.4,17.7-14.4,17.7h0Z"/>
        </g>
        <path class="st10" d="M330.3,253.1c4.7-12.4,1.6-33.4-21.2-29.4-13.4,2.4-15,18.6-10.5,25.8,4.5,7.2-.3,7.4,6.5,12.8,2.7,2.2,4.9,5.8,8.2,6,3.9.3,8.8-3.4,12.5-7.4"/>
        <path class="st1" d="M307.8,249.5s3.4-3.1,7.4-1.8"/>
        <path class="st1" d="M301.5,249.5s-1.1-2.4-4.4-2.9"/>
        <path class="st10" d="M303.7,253.9s-.5,2.5-1.1,5c-.6,2.4,4,1.1,3.8.7"/>
        <path class="st1" d="M308.8,262.8s3-.7,5-3.3"/>
        <path class="st6" d="M312.5,252.6c.2.7-.1,1.4-.6,1.5-.5.1-1.1-.3-1.3-1s.1-1.4.6-1.5c.5-.1,1.1.3,1.3,1Z"/>
        <path class="st6" d="M302.3,252.4c.2.7,0,1.3-.3,1.4-.4.1-.8-.4-1-1.1-.2-.7,0-1.3.3-1.4.4-.1.8.4,1,1.1Z"/>
        <path class="st15" d="M316.2,236.8s-3.5,9.3-12.3,9.1c0,0,3-2.3,3.9-4.5,0,0-6.7,6.7-13.5,3.3-6.7-3.4-3.5-19.1,6.9-25.4s20.9-4.6,24.5,1.4c0,0,7.2-.7,10.4,10,2.9,9.5-1.7,23.9-6.2,24.1-6.9.3-8.3-7.2-8.3-7.2,0,0-4.1-3.7-5.4-10.6h0Z"/>
        <path class="st10" d="M323.8,253.2s-.2-8.7,4.7-7.7c5,1.1,1.4,11.1-2.4,11"/>
      </g>
      <rect class="st18" x="230.2" y="302.2" width="79.8" height="5.8" rx="1.5" ry="1.5"/>
    </g>
  </g>
  <g id="Plant">
    <g>
      <polygon class="st15" points="118.5 418.5 86.1 418.5 89.5 448.1 115.1 448.1 118.5 418.5"/>
      <g>
        <path class="st18" d="M122.3,397.9s-14.1,1.1-14.7,11.5c0,0,14.3,6.6,14.7-11.5Z"/>
        <path class="st18" d="M94.4,400.5s-7.9-10.7-20.7-5.2c0,0,7.8,12.9,20.7,5.2Z"/>
        <path class="st18" d="M74.8,366.8s-2.3,20.5,16.4,14.9c0,0-5.9-15.1-16.4-14.9Z"/>
        <path class="st18" d="M97.8,355.3s-14.8,8-3.9,20.1c0,0,10.4-8.6,3.9-20.1Z"/>
        <path class="st18" d="M115.9,373.7s-16.1-1.6-16.1,13.3c0,0,16.1.6,16.1-13.3Z"/>
        <path class="st1" d="M100.8,430.7s7.3-15.4.3-31c-7-15.7-9.4-28.9-5.7-38.2"/>
        <path class="st1" d="M110.7,377.7s-9.6,3.8-12.9,13.8"/>
        <path class="st1" d="M79.9,375s5.6,7.6,15,6.8"/>
        <path class="st1" d="M79.9,397.5s15.4,4.4,21.5,3"/>
        <path class="st1" d="M117.7,402.6s-6.9,7.6-13.8,7.5"/>
      </g>
      <rect class="st15" x="84.7" y="417.8" width="35.1" height="4.2"/>
    </g>
  </g>
  <g id="Bag">
    <g>
      <g>
        <path class="st36" d="M374.9,391s-11.8,7-20.2,21-15,33.7-4.7,36.1l9.8-.4,18.9-6.5-2-3.8s-16.5,8.8-19.4,8.8-6.5.7-8-.4,5.4-26.6,20.4-35c15-8.5,5.2-19.7,5.2-19.7h0Z"/>
        <g class="st33">
          <path class="st20" d="M374.9,391s-11.8,7-20.2,21-15,33.7-4.7,36.1l9.8-.4,18.9-6.5-2-3.8s-16.5,8.8-19.4,8.8-6.5.7-8-.4,5.4-26.6,20.4-35c15-8.5,5.2-19.7,5.2-19.7h0Z"/>
        </g>
        <path class="st1" d="M374.9,391s-11.8,7-20.2,21-15,33.7-4.7,36.1l9.8-.4,18.9-6.5-2-3.8s-16.5,8.8-19.4,8.8-6.5.7-8-.4,5.4-26.6,20.4-35c15-8.5,5.2-19.7,5.2-19.7h0Z"/>
      </g>
      <path class="st18" d="M385.6,381.8s0-4.1,6.2-4.7,7.1,5.4,7.1,5.4h-2.1s0-3.6-4.5-3.9-4.4,3.9-4.4,3.9l-2.3-.8h0Z"/>
      <g>
        <path class="st36" d="M376.4,448.1c-13.1,0-10.6-58.9-9.1-61.9s39.6-4.4,43.4-3.1c3.8,1.2,18.8,60,10.5,64.6l-44.8.4h0Z"/>
        <g class="st32">
          <path class="st19" d="M376.4,448.1c-13.1,0-10.6-58.9-9.1-61.9s39.6-4.4,43.4-3.1c3.8,1.2,18.8,60,10.5,64.6l-44.8.4h0Z"/>
        </g>
        <path class="st1" d="M376.4,448.1c-13.1,0-10.6-58.9-9.1-61.9s39.6-4.4,43.4-3.1c3.8,1.2,18.8,60,10.5,64.6l-44.8.4h0Z"/>
      </g>
      <path class="st18" d="M367.3,386.2c4.8,1,7.5,20.3,13.9,25.2s36.6,3.9,40,0-3.3-25.5-8.1-28.8-8.3-.1-22-1.6c-20.2-2.3-23.8,5.2-23.8,5.2h0Z"/>
      <g>
        <path class="st36" d="M402,397.3l5.6,4.6c.3.3.4.8,0,1.1l-4.4,4.7c-.3.3-.8.3-1.1,0l-5.6-5.3c-.3-.3-.3-.8,0-1.1l4.3-4c.3-.3.7-.3,1,0h0Z"/>
        <g class="st24">
          <path class="st19" d="M402,397.3l5.6,4.6c.3.3.4.8,0,1.1l-4.4,4.7c-.3.3-.8.3-1.1,0l-5.6-5.3c-.3-.3-.3-.8,0-1.1l4.3-4c.3-.3.7-.3,1,0h0Z"/>
        </g>
        <path class="st1" d="M402,397.3l5.6,4.6c.3.3.4.8,0,1.1l-4.4,4.7c-.3.3-.8.3-1.1,0l-5.6-5.3c-.3-.3-.3-.8,0-1.1l4.3-4c.3-.3.7-.3,1,0h0Z"/>
      </g>
      <g>
        <path class="st36" d="M383.5,421.3s25.3,2.1,37.7-1.1c0,0,2.4,1.7,3.6,5.1,1.1,3.4,3.5,15-3.6,18-7,3-32.3,2.4-35.7-1s-2-20.9-2-20.9h0Z"/>
        <g class="st23">
          <path class="st17" d="M383.5,421.3s25.3,2.1,37.7-1.1c0,0,2.4,1.7,3.6,5.1,1.1,3.4,3.5,15-3.6,18-7,3-32.3,2.4-35.7-1s-2-20.9-2-20.9h0Z"/>
        </g>
        <path class="st1" d="M383.5,421.3s25.3,2.1,37.7-1.1c0,0,2.4,1.7,3.6,5.1,1.1,3.4,3.5,15-3.6,18-7,3-32.3,2.4-35.7-1s-2-20.9-2-20.9h0Z"/>
      </g>
      <path class="st18" d="M383.5,421.3s3,8,4.5,9.2,34.4,1.2,38-1.7c3.6-3-1.4-8.3-4.9-8.6,0,0-23,2.7-37.7,1.1h0Z"/>
      <g>
        <path class="st36" d="M372.9,419.6s.9,16.8,2.5,20.6c0,0-3.9,2.3-8.1,0-4.3-2.3-3.6-16.8-2.7-16.7s8.3-3.9,8.3-3.9h0Z"/>
        <g class="st25">
          <path class="st17" d="M372.9,419.6s.9,16.8,2.5,20.6c0,0-3.9,2.3-8.1,0-4.3-2.3-3.6-16.8-2.7-16.7s8.3-3.9,8.3-3.9h0Z"/>
        </g>
        <path class="st1" d="M372.9,419.6s.9,16.8,2.5,20.6c0,0-3.9,2.3-8.1,0-4.3-2.3-3.6-16.8-2.7-16.7s8.3-3.9,8.3-3.9h0Z"/>
      </g>
      <path class="st18" d="M372.9,419.6l-6.4,1.3s-6.1,4.7-3.4,6.2,9.6-2.3,9.8-7.5h0Z"/>
    </g>
  </g>
</svg>