<?xml version="1.0" encoding="UTF-8"?>
<svg id="Character" xmlns="http://www.w3.org/2000/svg" version="1.1" viewBox="0 0 500 500">
  <!-- Generator: Adobe Illustrator 29.0.1, SVG Export Plug-In . SVG Version: 2.1.0 Build 192)  -->
  <g>
    <path d="M464.69,293.8c-13.01,39.42-41.03,82.63-82.26,96.69-62.3,21.26-67.87,72.36-180.95,72.01-17.63-.05-34-1.9-49.09-5.27-8.12-1.81-15.87-4.08-23.25-6.75-66.98-24.16-103.66-81.63-108.89-143.04-6.9-80.76,48.06-121.51,83.88-145.51,35.82-24,76.65-113.2,187.82-113.74,16.95-.07,33.93,1.59,50.46,5.39,37.75,8.67,76.58,29.56,99.91,61.4,1.75,2.39,3.43,4.84,5.04,7.35,31.47,48.96,35.06,117.73,17.32,171.47Z" style="fill: #0d419d;"/>
    <path d="M464.69,293.8c-13.01,39.42-41.03,82.63-82.26,96.69-62.3,21.26-67.87,72.36-180.95,72.01-17.63-.05-34-1.9-49.09-5.27-8.12-1.81-15.87-4.08-23.25-6.75-66.98-24.16-103.66-81.63-108.89-143.04-6.9-80.76,48.06-121.51,83.88-145.51,35.82-24,76.65-113.2,187.82-113.74,16.95-.07,33.93,1.59,50.46,5.39,37.75,8.67,76.58,29.56,99.91,61.4,1.75,2.39,3.43,4.84,5.04,7.35,31.47,48.96,35.06,117.73,17.32,171.47Z" style="fill: #fff; opacity: .7;"/>
  </g>
  <line x1="479.85" y1="445" x2="24.09" y2="445" style="fill: none; stroke: #263238; stroke-linecap: round; stroke-linejoin: round; stroke-width: .99px;"/>
  <g>
    <path d="M41.08,382.55c2.13.93,7.32.81,7.33.81.05,0-1.12-3.4-1.22-3.61-1.14-2.39-4.75-6.33-7.68-5.93-2.11.29-3.29,2.4-2.81,4.39.49,2.03,2.57,3.54,4.38,4.33Z" style="fill: #263238;"/>
    <path d="M42.88,397.61c2.2.32,6.84-1.02,7.21-1.13.73,2.6,1.69,5.2,2.81,7.79.64,1.48,1.33,2.95,2.04,4.41-.42-.62-.81-1.17-.87-1.24-1.73-2-6.25-4.85-8.98-3.69-1.96.83-2.54,3.18-1.55,4.98,1.01,1.83,3.42,2.74,5.37,3.02,1.98.29,5.96-.78,7.01-1.08.28.56.55,1.12.83,1.68,1.34,2.68,2.7,5.34,3.94,7.99.44.93.84,1.87,1.24,2.81-.38-.55-.7-1.01-.75-1.08-1.73-2-6.25-4.85-8.98-3.69-1.96.83-2.54,3.19-1.55,4.98,1.01,1.83,3.42,2.74,5.37,3.02,1.89.28,5.57-.68,6.82-1.02.38.97.77,1.94,1.1,2.9.21.66.46,1.28.63,1.95.19.66.37,1.32.55,1.97.3,1.27.62,2.57.89,3.81.19.86.36,1.69.53,2.52-.43-.94-1.3-2.75-1.39-2.89-1.41-2.24-5.44-5.74-8.31-5.01-2.07.53-2.99,2.76-2.29,4.69.72,1.96,2.96,3.22,4.85,3.8,2.08.64,6.68.05,7.26-.02.28,1.38.53,2.72.75,3.99.12.67.22,1.3.33,1.94h1.83c-.14-.73-.28-1.48-.43-2.26-.27-1.4-.6-2.89-.94-4.41.35-.14,2.31-.93,4.05-1.9,1.52,1.64,5.4,3.56,5.9,3.81-.53,1.3-1.06,2.56-1.57,3.74-.16.36-.3.69-.46,1.03h1.93c.05-.12.1-.23.14-.35.54-1.32,1.1-2.74,1.65-4.2.56.12,5.11,1.04,7.24.56,1.93-.44,4.26-1.53,5.12-3.43.84-1.86.09-4.16-1.93-4.84-2.81-.94-7.09,2.25-8.66,4.37-.09.13-.95,1.6-1.47,2.54.22-.6.45-1.18.67-1.8.45-1.22.86-2.45,1.31-3.78.19-.65.39-1.3.59-1.96.21-.65.35-1.36.53-2.05.38-1.6.69-3.25.96-4.91,1.07.39,4.89,1.72,6.87,1.58,1.97-.14,4.44-.86,5.58-2.61,1.12-1.72.72-4.1-1.18-5.08-2.63-1.36-7.35,1.15-9.23,3.01-.12.12-1.31,1.61-1.95,2.44.16-1,.32-2,.44-3.02.36-2.94.64-5.92.93-8.9.09-.91.19-1.82.28-2.73.38.14,4.89,1.82,7.1,1.67,1.97-.14,4.44-.86,5.58-2.61,1.12-1.71.72-4.1-1.18-5.08-2.63-1.36-7.35,1.14-9.22,3.01-.14.14-1.86,2.29-2.27,2.85.21-2,.44-3.99.75-5.95.42-2.7.98-5.32,1.71-7.82.18.07,4.87,1.84,7.14,1.68,1.97-.14,4.44-.86,5.58-2.61,1.12-1.72.72-4.1-1.18-5.08-2.63-1.36-7.35,1.14-9.23,3.01-.15.15-1.99,2.46-2.3,2.9.04-.15.07-.31.12-.46.81-2.66,1.93-5.14,3.1-7.4.67-1.32,1.39-2.54,2.12-3.71.84.42,4.7,2.3,6.76,2.38,1.97.08,4.51-.37,5.84-1.99,1.3-1.58,1.17-4-.61-5.18-2.47-1.64-7.43.33-9.5,1.98-.11.09-1.15,1.13-1.9,1.89.33-.52.67-1.07,1-1.57,1.24-1.87,2.49-3.5,3.61-4.93.64-.81,1.24-1.53,1.81-2.2,1.04-.02,5.23-.15,7.06-1.01,1.79-.84,3.83-2.41,4.26-4.45.42-2-.81-4.09-2.93-4.31-2.94-.32-6.44,3.72-7.52,6.13-.09.21-1.17,3.64-1.12,3.64,0,0,.05,0,.06,0-.56.63-1.15,1.32-1.78,2.08-1.15,1.42-2.44,3.02-3.72,4.87-1.29,1.84-2.64,3.88-3.86,6.15-1.23,2.28-2.41,4.74-3.3,7.43-.01.03-.02.06-.03.09.02-.87-.02-3.29-.05-3.48-.34-2.62-2.54-7.49-5.45-8.03-2.1-.39-3.87,1.26-4.04,3.3-.17,2.08,1.34,4.17,2.81,5.49,1.66,1.48,6.27,2.92,6.64,3.03-.82,2.57-1.46,5.27-1.95,8.05-.28,1.58-.52,3.19-.73,4.8-.01-.75-.03-1.42-.04-1.52-.34-2.62-2.54-7.49-5.45-8.03-2.1-.39-3.87,1.26-4.04,3.3-.17,2.08,1.34,4.17,2.81,5.49,1.49,1.34,5.4,2.64,6.44,2.97-.08.62-.16,1.24-.23,1.86-.36,2.97-.7,5.94-1.12,8.84-.15,1.02-.33,2.02-.51,3.03-.01-.67-.02-1.23-.04-1.31-.34-2.62-2.54-7.49-5.45-8.03-2.1-.39-3.88,1.26-4.04,3.3-.17,2.08,1.34,4.17,2.81,5.48,1.43,1.27,5.02,2.51,6.25,2.91-.22,1.02-.43,2.04-.69,3.02-.19.66-.33,1.32-.55,1.98-.21.65-.42,1.3-.63,1.95-.45,1.22-.9,2.49-1.36,3.67-.32.82-.63,1.6-.95,2.39.16-1.02.43-3.01.44-3.18.04-1.76-.58-4.61-1.83-6.62,0-.26,0-.52-.05-.77-.32-2.02-2.22-3.52-4.29-2.97-2.86.76-4.68,5.79-4.81,8.43,0,.16.09,1.86.18,2.93-.14-.62-.28-1.23-.43-1.87-.3-1.27-.64-2.52-.99-3.87-.2-.65-.39-1.3-.59-1.96-.18-.66-.46-1.33-.69-2-.57-1.55-1.21-3.09-1.9-4.63,1.11-.27,5.03-1.26,6.6-2.47,1.57-1.2,3.23-3.17,3.21-5.26-.01-2.05-1.66-3.82-3.79-3.59-2.94.32-5.5,5.01-6.03,7.6-.03.16-.21,2.06-.28,3.11-.42-.92-.84-1.84-1.29-2.76-1.32-2.65-2.73-5.29-4.13-7.93-.43-.81-.85-1.62-1.27-2.43.4-.09,5.08-1.18,6.84-2.53,1.57-1.2,3.23-3.17,3.21-5.26-.01-2.05-1.66-3.82-3.78-3.59-2.94.32-5.5,5.01-6.03,7.6-.04.2-.29,2.93-.32,3.63-.93-1.78-1.83-3.57-2.66-5.37-1.14-2.48-2.12-4.98-2.89-7.46.18-.04,5.08-1.15,6.89-2.54,1.57-1.2,3.23-3.17,3.21-5.26-.01-2.05-1.66-3.82-3.79-3.59-2.94.32-5.5,5.01-6.03,7.6-.04.2-.31,3.15-.32,3.68-.05-.15-.11-.3-.15-.44-.79-2.67-1.22-5.35-1.5-7.88-.17-1.47-.24-2.89-.28-4.26.93-.11,5.19-.68,6.95-1.75,1.69-1.02,3.56-2.8,3.77-4.88.21-2.04-1.23-3.98-3.37-3.98-2.96,0-6.02,4.38-6.83,6.89-.04.14-.34,1.58-.54,2.63,0-.62-.03-1.26-.03-1.86,0-2.24.15-4.29.29-6.11.09-1.03.19-1.96.29-2.83.86-.59,4.28-3.01,5.34-4.74,1.03-1.69,1.87-4.12,1.1-6.06-.75-1.9-2.93-2.96-4.82-1.98-2.63,1.36-3.32,6.66-2.89,9.26.04.23,1.03,3.68,1.08,3.65,0,0,.04-.03.05-.04-.12.83-.23,1.73-.34,2.71-.18,1.82-.37,3.87-.42,6.12-.06,2.25-.06,4.69.17,7.26.23,2.58.6,5.28,1.35,8.01,0,.03.02.06.03.09-.47-.73-1.84-2.74-1.96-2.88-1.73-2-6.25-4.85-8.98-3.69-1.96.83-2.54,3.19-1.55,4.98,1.01,1.83,3.42,2.74,5.37,3.02Z" style="fill: #263238;"/>
    <path d="M93.66,383.7s.95-3.45.98-3.68c.36-2.62-.47-7.9-3.14-9.18-1.92-.93-4.07.19-4.77,2.11-.72,1.96.19,4.37,1.26,6.03,1.26,1.95,5.66,4.72,5.66,4.72Z" style="fill: #263238;"/>
  </g>
  <g>
    <path d="M181.27,416.18c.98.43,3.38.37,3.38.37.02,0-.52-1.57-.56-1.67-.53-1.1-2.19-2.92-3.55-2.74-.98.13-1.52,1.11-1.3,2.03.23.94,1.19,1.64,2.02,2Z" style="fill: #263238;"/>
    <path d="M182.1,423.13c1.02.15,3.16-.47,3.33-.52.34,1.2.78,2.4,1.3,3.59.29.68.61,1.36.94,2.04-.2-.29-.37-.54-.4-.57-.8-.92-2.88-2.24-4.14-1.7-.91.38-1.17,1.47-.72,2.3.46.85,1.58,1.26,2.48,1.4.92.13,2.75-.36,3.24-.5.13.26.25.52.38.77.62,1.23,1.24,2.46,1.82,3.69.2.43.39.86.57,1.3-.17-.25-.32-.47-.35-.5-.8-.92-2.88-2.24-4.14-1.7-.91.38-1.17,1.47-.72,2.3.47.85,1.58,1.26,2.48,1.4.87.13,2.57-.31,3.15-.47.18.45.35.9.51,1.34.1.3.21.59.29.9.09.31.17.61.25.91.14.58.29,1.19.41,1.76.09.4.16.78.24,1.16-.2-.43-.6-1.27-.64-1.34-.65-1.03-2.51-2.65-3.84-2.31-.95.24-1.38,1.28-1.06,2.16.33.91,1.37,1.49,2.24,1.75.96.29,3.09.03,3.35,0,.13.64.25,1.25.35,1.84.05.31.1.6.15.89h.85c-.06-.34-.13-.68-.2-1.04-.13-.65-.27-1.33-.43-2.04.16-.06,1.07-.43,1.87-.88.7.76,2.49,1.64,2.72,1.76-.24.6-.49,1.18-.73,1.73-.07.17-.14.32-.21.48h.89c.02-.05.04-.11.07-.16.25-.61.51-1.26.76-1.94.26.05,2.36.48,3.34.26.89-.2,1.97-.7,2.36-1.58.39-.86.04-1.92-.89-2.24-1.3-.44-3.27,1.04-4,2.02-.04.06-.44.74-.68,1.17.1-.28.21-.54.31-.83.21-.56.4-1.13.6-1.74.09-.3.18-.6.27-.9.1-.3.16-.63.24-.95.18-.74.32-1.5.45-2.27.49.18,2.26.79,3.17.73.91-.06,2.05-.4,2.58-1.21.52-.79.33-1.89-.54-2.35-1.22-.63-3.39.53-4.26,1.39-.05.05-.61.74-.9,1.12.07-.46.15-.92.21-1.39.17-1.36.3-2.73.43-4.11.04-.42.09-.84.13-1.26.18.07,2.26.84,3.28.77.91-.06,2.05-.4,2.58-1.21.52-.79.33-1.89-.54-2.35-1.21-.63-3.39.53-4.26,1.39-.07.06-.86,1.06-1.05,1.32.1-.92.2-1.84.34-2.74.19-1.24.45-2.46.79-3.61.08.03,2.25.85,3.3.78.91-.06,2.05-.4,2.58-1.21.52-.79.33-1.89-.54-2.35-1.22-.63-3.39.53-4.26,1.39-.07.07-.92,1.13-1.06,1.34.02-.07.03-.14.05-.21.38-1.23.89-2.37,1.43-3.42.31-.61.64-1.17.98-1.71.39.19,2.17,1.06,3.12,1.1.91.04,2.08-.17,2.69-.92.6-.73.54-1.85-.28-2.39-1.14-.76-3.43.15-4.39.91-.05.04-.53.52-.88.87.15-.24.31-.49.46-.72.57-.86,1.15-1.61,1.66-2.28.3-.37.57-.71.83-1.02.48,0,2.41-.07,3.26-.46.82-.39,1.77-1.11,1.97-2.05.2-.92-.37-1.89-1.35-1.99-1.36-.15-2.97,1.72-3.47,2.83-.04.1-.54,1.68-.52,1.68,0,0,.02,0,.03,0-.26.29-.53.61-.82.96-.53.65-1.13,1.4-1.72,2.25-.59.85-1.22,1.79-1.78,2.84-.57,1.05-1.11,2.19-1.52,3.43,0,.01,0,.03-.01.04,0-.4-.01-1.52-.02-1.61-.16-1.21-1.17-3.46-2.52-3.71-.97-.18-1.79.58-1.87,1.52-.08.96.62,1.92,1.3,2.53.77.69,2.9,1.35,3.07,1.4-.38,1.19-.67,2.43-.9,3.71-.13.73-.24,1.47-.34,2.22,0-.35-.01-.66-.02-.7-.16-1.21-1.17-3.46-2.52-3.71-.97-.18-1.79.58-1.87,1.52-.08.96.62,1.92,1.3,2.53.69.62,2.49,1.22,2.97,1.37-.04.29-.07.57-.11.86-.16,1.37-.32,2.74-.52,4.08-.07.47-.15.93-.24,1.4,0-.31-.01-.57-.02-.61-.16-1.21-1.17-3.46-2.52-3.71-.97-.18-1.79.58-1.87,1.52-.08.96.62,1.92,1.3,2.53.66.59,2.32,1.16,2.89,1.34-.1.47-.2.94-.32,1.4-.09.31-.15.61-.26.91-.1.3-.19.6-.29.9-.21.56-.41,1.15-.63,1.69-.15.38-.29.74-.44,1.1.07-.47.2-1.39.2-1.47.02-.81-.27-2.13-.84-3.06,0-.12,0-.24-.02-.36-.15-.93-1.03-1.63-1.98-1.37-1.32.35-2.16,2.67-2.22,3.89,0,.07.04.86.08,1.35-.07-.29-.13-.57-.2-.86-.14-.58-.29-1.16-.46-1.79-.09-.3-.18-.6-.27-.9-.08-.3-.21-.61-.32-.92-.26-.71-.56-1.43-.88-2.14.51-.12,2.32-.58,3.05-1.14.72-.55,1.49-1.46,1.48-2.43,0-.95-.77-1.76-1.75-1.66-1.36.15-2.54,2.31-2.79,3.51-.02.07-.1.95-.13,1.44-.19-.43-.39-.85-.6-1.27-.61-1.22-1.26-2.44-1.91-3.66-.2-.37-.39-.75-.59-1.12.18-.04,2.35-.54,3.16-1.17.72-.55,1.49-1.46,1.48-2.43,0-.94-.77-1.76-1.75-1.66-1.36.15-2.54,2.31-2.79,3.51-.02.09-.13,1.35-.15,1.68-.43-.82-.85-1.65-1.23-2.48-.53-1.14-.98-2.3-1.33-3.45.09-.02,2.34-.53,3.18-1.17.72-.56,1.49-1.46,1.48-2.43,0-.95-.77-1.76-1.75-1.66-1.36.15-2.54,2.31-2.79,3.51-.02.09-.14,1.45-.15,1.7-.02-.07-.05-.14-.07-.2-.36-1.23-.56-2.47-.69-3.64-.08-.68-.11-1.33-.13-1.97.43-.05,2.4-.31,3.21-.81.78-.47,1.64-1.29,1.74-2.25.1-.94-.57-1.84-1.55-1.84-1.37,0-2.78,2.02-3.15,3.18-.02.06-.16.73-.25,1.21,0-.29-.01-.58-.01-.86,0-1.03.07-1.98.13-2.82.04-.48.09-.91.13-1.31.4-.27,1.98-1.39,2.46-2.19.47-.78.86-1.9.51-2.8-.35-.88-1.35-1.37-2.23-.92-1.21.63-1.53,3.07-1.33,4.28.02.1.48,1.7.5,1.69,0,0,.02-.01.02-.02-.05.39-.11.8-.15,1.25-.08.84-.17,1.79-.19,2.82-.03,1.04-.03,2.16.08,3.35.11,1.19.28,2.44.62,3.7,0,.01,0,.03.01.04-.22-.34-.85-1.26-.9-1.33-.8-.92-2.88-2.24-4.14-1.7-.91.39-1.17,1.47-.72,2.3.47.85,1.58,1.26,2.48,1.4Z" style="fill: #263238;"/>
    <path d="M205.54,416.7s.44-1.59.45-1.7c.17-1.21-.22-3.64-1.45-4.24-.89-.43-1.88.09-2.2.98-.33.91.09,2.02.58,2.78.58.9,2.61,2.18,2.61,2.18Z" style="fill: #263238;"/>
  </g>
  <g>
    <path d="M224.83,55.26c-5.98,3.49-8.23,10.26-9.31,13.5-1.49,4.48-6.73-2.99-17.19.75-10.46,3.74-11.96,11.96-14.2,14.2s-17.19,8.22-17.19,8.22h149.99" style="fill: none; stroke: #263238; stroke-linecap: round; stroke-linejoin: round; stroke-width: .99px;"/>
    <path d="M324.39,91.93h18.17s2.99-16.44-3.74-24.66c-6.73-8.22-21.67,3.74-26.16-8.22,0,0-13.45-19.43-29.89-20.93-16.44-1.49-23.17,11.21-28.4,17.94-5.23,6.73-8.22-2.99-20.93-2.99" style="fill: none; stroke: #263238; stroke-linecap: round; stroke-linejoin: round; stroke-width: .99px;"/>
    <path d="M252.61,78.58c-3.05,2.84-3.47,6.62-3.47,6.62" style="fill: none; stroke: #263238; stroke-linecap: round; stroke-linejoin: round; stroke-width: .99px;"/>
    <path d="M309.68,65.77s-10.46-10.46-22.42-9.72c-11.96.75-7.47,14.95-12.71,19.43s-11.21-1.49-17.94.75" style="fill: none; stroke: #263238; stroke-linecap: round; stroke-linejoin: round; stroke-width: .99px;"/>
  </g>
  <g>
    <path d="M74.91,101.94c-3.9,2.28-5.38,6.7-6.08,8.82-.98,2.93-4.39-1.95-11.23.49s-7.81,7.81-9.28,9.28-11.23,5.37-11.23,5.37h97.99" style="fill: none; stroke: #263238; stroke-linecap: round; stroke-linejoin: round; stroke-width: .99px;"/>
    <path d="M139.96,125.89h11.87s1.95-10.74-2.44-16.11-14.16,2.44-17.09-5.37c0,0-8.79-12.7-19.53-13.67s-15.14,7.32-18.55,11.72c-3.42,4.39-5.37-1.95-13.67-1.95" style="fill: none; stroke: #263238; stroke-linecap: round; stroke-linejoin: round; stroke-width: .99px;"/>
    <path d="M93.07,117.17c-1.99,1.85-2.27,4.33-2.27,4.33" style="fill: none; stroke: #263238; stroke-linecap: round; stroke-linejoin: round; stroke-width: .99px;"/>
    <path d="M130.35,108.8s-6.84-6.84-14.65-6.35-4.88,9.77-8.3,12.7-7.32-.98-11.72.49" style="fill: none; stroke: #263238; stroke-linecap: round; stroke-linejoin: round; stroke-width: .99px;"/>
  </g>
  <g>
    <path d="M274.44,141.27c-2.72,1.59-3.75,4.67-4.24,6.15-.68,2.04-3.06-1.36-7.83.34s-5.45,5.45-6.47,6.47c-1.02,1.02-7.83,3.75-7.83,3.75h68.33" style="fill: none; stroke: #263238; stroke-linecap: round; stroke-linejoin: round; stroke-width: .99px;"/>
    <path d="M319.8,157.98h8.28s1.36-7.49-1.7-11.24-9.87,1.7-11.92-3.75c0,0-6.13-8.85-13.62-9.53s-10.56,5.11-12.94,8.17c-2.38,3.06-3.75-1.36-9.53-1.36" style="fill: none; stroke: #263238; stroke-linecap: round; stroke-linejoin: round; stroke-width: .99px;"/>
    <path d="M287.1,151.9c-1.39,1.29-1.58,3.02-1.58,3.02" style="fill: none; stroke: #263238; stroke-linecap: round; stroke-linejoin: round; stroke-width: .99px;"/>
    <path d="M313.1,146.06s-4.77-4.77-10.21-4.43c-5.45.34-3.41,6.81-5.79,8.85-2.38,2.04-5.11-.68-8.17.34" style="fill: none; stroke: #263238; stroke-linecap: round; stroke-linejoin: round; stroke-width: .99px;"/>
  </g>
  <g>
    <path d="M105.67,355.95v-41.17h-50.06v-24.41l43.65-101.99h33.31v103.64h17.17v22.75h-17.17v41.17h-26.89ZM79.6,292.02h26.07v-72.82l-26.07,72.82Z" style="fill: #263238; stroke: #263238; stroke-linecap: round; stroke-linejoin: round; stroke-width: .99px;"/>
    <path d="M208.48,358.43c-9.79,0-17.89-2.07-24.31-6.21-6.41-4.14-11.24-9.86-14.48-17.17-3.24-7.31-4.86-15.72-4.86-25.24v-74.27c0-9.79,1.55-18.38,4.65-25.75,3.1-7.38,7.86-13.14,14.27-17.27,6.41-4.14,14.65-6.21,24.72-6.21s18.31,2.07,24.72,6.21c6.41,4.14,11.17,9.9,14.27,17.27,3.1,7.38,4.65,15.96,4.65,25.75v74.27c0,9.52-1.62,17.93-4.86,25.24-3.24,7.31-8.07,13.03-14.48,17.17-6.41,4.14-14.52,6.21-24.31,6.21ZM208.48,333.81c4.27,0,7.45-1.31,9.52-3.93,2.07-2.62,3.45-5.79,4.14-9.52.69-3.72,1.03-7.38,1.03-10.96v-73.44c0-3.86-.31-7.69-.93-11.48-.62-3.79-1.97-7-4.03-9.62-2.07-2.62-5.31-3.93-9.72-3.93s-7.65,1.31-9.72,3.93c-2.07,2.62-3.41,5.83-4.03,9.62-.62,3.79-.93,7.62-.93,11.48v73.44c0,3.59.38,7.24,1.14,10.96.76,3.72,2.17,6.9,4.24,9.52,2.07,2.62,5.17,3.93,9.31,3.93Z" style="fill: #263238; stroke: #263238; stroke-linecap: round; stroke-linejoin: round; stroke-width: .99px;"/>
    <path d="M320.39,355.95v-41.17h-50.06v-24.41l43.65-101.99h33.3v103.64h17.17v22.75h-17.17v41.17h-26.89ZM294.32,292.02h26.07v-72.82l-26.07,72.82Z" style="fill: #263238; stroke: #263238; stroke-linecap: round; stroke-linejoin: round; stroke-width: .99px;"/>
  </g>
  <g>
    <path d="M118.14,355.95v-41.17h-50.06v-24.41l43.65-101.99h33.31v103.64h17.17v22.75h-17.17v41.17h-26.89ZM92.07,292.02h26.07v-72.82l-26.07,72.82Z" style="fill: #fff; stroke: #263238; stroke-linecap: round; stroke-linejoin: round; stroke-width: .99px;"/>
    <path d="M220.95,358.43c-9.79,0-17.89-2.07-24.31-6.21-6.41-4.14-11.24-9.86-14.48-17.17-3.24-7.31-4.86-15.72-4.86-25.24v-74.27c0-9.79,1.55-18.38,4.65-25.75,3.1-7.38,7.86-13.14,14.27-17.27,6.41-4.14,14.65-6.21,24.72-6.21s18.31,2.07,24.72,6.21c6.41,4.14,11.17,9.9,14.27,17.27,3.1,7.38,4.65,15.96,4.65,25.75v74.27c0,9.52-1.62,17.93-4.86,25.24-3.24,7.31-8.07,13.03-14.48,17.17-6.41,4.14-14.52,6.21-24.31,6.21ZM220.95,333.81c4.27,0,7.45-1.31,9.52-3.93,2.07-2.62,3.45-5.79,4.14-9.52.69-3.72,1.03-7.38,1.03-10.96v-73.44c0-3.86-.31-7.69-.93-11.48-.62-3.79-1.97-7-4.03-9.62-2.07-2.62-5.31-3.93-9.72-3.93s-7.65,1.31-9.72,3.93c-2.07,2.62-3.41,5.83-4.03,9.62-.62,3.79-.93,7.62-.93,11.48v73.44c0,3.59.38,7.24,1.14,10.96.76,3.72,2.17,6.9,4.24,9.52,2.07,2.62,5.17,3.93,9.31,3.93Z" style="fill: #fff; stroke: #263238; stroke-linecap: round; stroke-linejoin: round; stroke-width: .99px;"/>
    <path d="M332.86,355.95v-41.17h-50.06v-24.41l43.65-101.99h33.3v103.64h17.17v22.75h-17.17v41.17h-26.89ZM306.8,292.02h26.07v-72.82l-26.07,72.82Z" style="fill: #fff; stroke: #263238; stroke-linecap: round; stroke-linejoin: round; stroke-width: .99px;"/>
  </g>
  <g>
    <path d="M110.53,180.29c-2.32,0-4.18-.43-5.55-1.3-1.38-.86-2.37-2.11-2.96-3.73-.59-1.62-.89-3.54-.89-5.76v-12.28c0-2.22.3-4.11.89-5.7.59-1.58,1.58-2.79,2.96-3.63,1.38-.84,3.23-1.26,5.55-1.26s4.25.42,5.61,1.26c1.36.84,2.35,2.05,2.96,3.63.61,1.58.91,3.48.91,5.7v12.32c0,2.19-.3,4.09-.91,5.7-.61,1.61-1.59,2.85-2.96,3.73-1.37.88-3.24,1.32-5.61,1.32ZM110.53,175.87c1,0,1.74-.22,2.21-.65.47-.43.79-1.03.95-1.78.16-.76.24-1.58.24-2.47v-15.12c0-.92-.08-1.74-.24-2.47-.16-.73-.48-1.3-.95-1.72-.47-.42-1.21-.63-2.21-.63-.95,0-1.66.21-2.15.63-.49.42-.81.99-.97,1.72s-.24,1.55-.24,2.47v15.12c0,.89.07,1.72.22,2.47.15.76.47,1.35.95,1.78.49.43,1.22.65,2.19.65Z" style="fill: #263238;"/>
    <path d="M133.35,180.29c-2.32,0-4.18-.43-5.55-1.3-1.38-.86-2.37-2.11-2.96-3.73-.59-1.62-.89-3.54-.89-5.76v-12.28c0-2.22.3-4.11.89-5.7.59-1.58,1.58-2.79,2.96-3.63,1.38-.84,3.23-1.26,5.55-1.26s4.25.42,5.61,1.26c1.36.84,2.35,2.05,2.96,3.63.61,1.58.91,3.48.91,5.7v12.32c0,2.19-.3,4.09-.91,5.7-.61,1.61-1.59,2.85-2.96,3.73-1.37.88-3.24,1.32-5.61,1.32ZM133.35,175.87c1,0,1.74-.22,2.21-.65.47-.43.79-1.03.95-1.78.16-.76.24-1.58.24-2.47v-15.12c0-.92-.08-1.74-.24-2.47-.16-.73-.48-1.3-.95-1.72-.47-.42-1.21-.63-2.21-.63-.95,0-1.66.21-2.15.63-.49.42-.81.99-.97,1.72s-.24,1.55-.24,2.47v15.12c0,.89.07,1.72.22,2.47.15.76.47,1.35.95,1.78.49.43,1.22.65,2.19.65Z" style="fill: #263238;"/>
    <path d="M147.25,179.84v-32.84h9.65c1.97,0,3.57.36,4.8,1.09,1.23.73,2.13,1.79,2.72,3.18.58,1.39.87,3.07.87,5.05,0,2.14-.36,3.86-1.09,5.17-.73,1.31-1.75,2.26-3.06,2.86-1.31.59-2.86.89-4.64.89h-3.24v14.59h-6ZM153.25,161.03h2.27c1.08,0,1.93-.16,2.53-.47.61-.31,1.03-.81,1.26-1.5.23-.69.34-1.61.34-2.78s-.09-2.15-.26-2.9c-.18-.74-.55-1.29-1.13-1.64-.58-.35-1.49-.53-2.74-.53h-2.27v9.81Z" style="fill: #263238;"/>
    <path d="M176.73,180.29c-1.97,0-3.62-.39-4.95-1.16-1.32-.77-2.32-1.9-3-3.38-.68-1.49-1.05-3.31-1.14-5.47l5.15-1.01c.05,1.27.21,2.39.47,3.36.26.97.65,1.72,1.18,2.25.53.53,1.22.79,2.09.79.97,0,1.66-.29,2.07-.87.41-.58.61-1.32.61-2.21,0-1.43-.32-2.61-.97-3.53-.65-.92-1.51-1.84-2.59-2.76l-4.13-3.65c-1.16-1-2.09-2.11-2.78-3.34-.69-1.23-1.03-2.75-1.03-4.56,0-2.59.76-4.59,2.27-6,1.51-1.4,3.58-2.11,6.2-2.11,1.54,0,2.82.24,3.85.71,1.03.47,1.84,1.13,2.45,1.97.61.84,1.06,1.79,1.36,2.86.3,1.07.49,2.2.57,3.38l-5.11.89c-.05-1.03-.17-1.95-.34-2.76-.18-.81-.49-1.45-.93-1.91-.45-.46-1.1-.69-1.97-.69s-1.57.29-2.05.87c-.47.58-.71,1.3-.71,2.17,0,1.11.23,2.02.69,2.74.46.72,1.12,1.45,1.99,2.21l4.09,3.61c1.35,1.14,2.51,2.47,3.47,3.99.96,1.53,1.44,3.37,1.44,5.53,0,1.57-.34,2.96-1.03,4.18s-1.65,2.17-2.88,2.86c-1.23.69-2.67,1.03-4.32,1.03Z" style="fill: #263238;"/>
    <path d="M187.63,179.84v-5.35h5.35v5.35h-5.35ZM189.33,172.14l-1.66-25.09h5.51l-1.95,25.09h-1.91Z" style="fill: #263238;"/>
  </g>
  <g>
    <path d="M335.25,376.28v7.06h3.68v-4.14c0-1.82,1.47-3.29,3.29-3.29h12.07c1.82,0,3.29,1.47,3.29,3.29v4.14h3.68v-7.06c0-1.82-1.47-3.29-3.29-3.29h-19.42c-1.82,0-3.29,1.47-3.29,3.29Z" style="fill: #263238; stroke: #263238; stroke-linecap: round; stroke-linejoin: round; stroke-width: .99px;"/>
    <path d="M304.38,381.41h69.63c2.56,0,4.64,2.08,4.64,4.64v55.96c0,1.65-1.34,2.99-2.99,2.99h-72.93c-1.65,0-2.99-1.34-2.99-2.99v-55.96c0-2.56,2.08-4.64,4.64-4.64Z" style="fill: #263238; stroke: #263238; stroke-linecap: round; stroke-linejoin: round; stroke-width: .99px;"/>
    <path d="M314.03,381.41h69.63c2.56,0,4.64,2.08,4.64,4.64v55.96c0,1.65-1.34,2.99-2.99,2.99h-72.93c-1.65,0-2.99-1.34-2.99-2.99v-55.96c0-2.56,2.08-4.64,4.64-4.64Z" style="fill: #8a8a8a; stroke: #263238; stroke-linecap: round; stroke-linejoin: round; stroke-width: .99px;"/>
  </g>
  <g>
    <g>
      <path d="M408.1,256.51s-19.85,59.62-21.56,70.41c-1.71,10.79-.61,24.19.42,30.97,1.03,6.78,11.6,65.32,11.6,65.32,0,0-2.62-.88-2.81,1.01-.19,1.89.47,9.9.47,9.9,0,0-2.74,3.84-9.96,8.02-7.22,4.18-10.73,5.44-8.57,6.81,2.16,1.37,11.37,1.86,15.13,1.3,3.76-.56,13.88-1.74,15.52-2.02,1.65-.27,6.62.79,8.21-2.08,1.58-2.87.44-11.57.84-14.65.4-3.08-1.84-7.98-1.86-8.69s-1.99-66.88-1.99-66.88l1.25-16.43s-.37,15.65,1.43,17.4c1.8,1.75,20.57,67.07,20.57,67.07l-1.82,2.87,2.27,6.32-1.79,4.05s-8.54,7.99-12.04,9.96c-3.49,1.97-7.02,2.52-5.09,4.13,1.93,1.61,20.78.69,20.78.69l19.72-4s2.99-3.37,2.45-6.19c-.54-2.82-3.13-12.9-3.13-12.9,0,0,.63-13.23-.08-13.68-.72-.46-4.37-5.32-4.65-7.21-.28-1.88-2.33-38.83-4.5-45.04-2.17-6.21-4.86-15.93-4.86-15.93,0,0,1.53-1.55,1.63-3.21.1-1.66-.39-4.7-.39-4.7,0,0,20.6-53.6,21.54-56.66.94-3.07,5.19-19.58,5.19-26.18s-.47-11.56-.47-11.56c0,0-16.04,7.31-32.31,8.02s-30.66-.24-30.66-.24l-.47,4.01Z" style="fill: #263238; stroke: #263238; stroke-linecap: round; stroke-linejoin: round; stroke-width: .99px;"/>
      <g>
        <path d="M457.4,258.63s0,16.04,8.02,19.11" style="fill: none; stroke: #fff; stroke-linecap: round; stroke-linejoin: round; stroke-width: .99px;"/>
        <path d="M468.96,253.91s.47,10.85-1.65,20.52" style="fill: none; stroke: #fff; stroke-linecap: round; stroke-linejoin: round; stroke-width: .99px;"/>
        <path d="M453.58,303.07c-2.2,4.68-3.88,8.31-3.96,8.63" style="fill: none; stroke: #fff; stroke-linecap: round; stroke-linejoin: round; stroke-width: .99px;"/>
        <path d="M464.24,280.56s-5.15,10.8-9.33,19.68" style="fill: none; stroke: #fff; stroke-linecap: round; stroke-linejoin: round; stroke-width: .99px;"/>
        <polyline points="416.85 324.75 425.56 287.41 416.36 279.39" style="fill: none; stroke: #fff; stroke-linecap: round; stroke-linejoin: round; stroke-width: .99px;"/>
        <line x1="414.96" y1="332.86" x2="415.87" y2="328.98" style="fill: none; stroke: #fff; stroke-linecap: round; stroke-linejoin: round; stroke-width: .99px;"/>
      </g>
    </g>
    <g>
      <path d="M369.68,171.06l-23.62,10.29s14.1-29.34,14.67-31.05-7.81-16.19-7.62-16.76c.19-.57,7.43-9.33,7.62-11.24s4.19-8.57,1.14-8.95c-3.05-.38-19.24,14.67-19.62,18.48-.38,3.81,7.24,16.76,8,17.91.76,1.14-39.24,44-40,50.86-.76,6.86,2.48,11.24,8.19,12,5.71.76,50.67-14.67,57.53-16.57,6.86-1.9,9.14,1.14,9.14,1.14,0,0,21.53,26.1,23.05,29.34,1.52,3.24.76,15.24-.95,18.86s-3.62,9.91-2.67,10.86c.95.95,1.65,2.13,4.51,2.89,2.86.76,22.73,3.21,33.97,1.49,11.24-1.71,24.57-7.62,27.62-9.91,3.05-2.29,3.43-4.95,3.43-8.38s-2.29-6.48-3.81-9.91c-1.52-3.43-11.62-34.86-15.81-44.96-4.19-10.1-2.86-17.72-18.67-26.67-15.81-8.95-34.36-7.08-34.36-7.08l-31.74,17.36Z" style="fill: #0d419d; stroke: #263238; stroke-linecap: round; stroke-linejoin: round; stroke-width: .99px;"/>
      <g>
        <g>
          <line x1="345.11" y1="195.71" x2="344.92" y2="198.68" style="fill: none; stroke: #263238; stroke-linecap: round; stroke-linejoin: round; stroke-width: .99px;"/>
          <polyline points="339.96 200.4 346.06 181.35 345.26 193.47" style="fill: none; stroke: #263238; stroke-linecap: round; stroke-linejoin: round; stroke-width: .99px;"/>
          <path d="M339.39,164.39s.95,7.24,10.29,7.62" style="fill: none; stroke: #263238; stroke-linecap: round; stroke-linejoin: round; stroke-width: .99px;"/>
          <path d="M383.01,195.44s-6.86-4.57-13.91-6.86" style="fill: #fff; stroke: #263238; stroke-linecap: round; stroke-linejoin: round; stroke-width: .99px;"/>
          <path d="M367.03,191.04c-.76-.13-1.53-.25-2.3-.36" style="fill: none; stroke: #263238; stroke-linecap: round; stroke-linejoin: round; stroke-width: .99px;"/>
          <path d="M380.54,194.11s-4.86-1.42-10.83-2.58" style="fill: none; stroke: #263238; stroke-linecap: round; stroke-linejoin: round; stroke-width: .99px;"/>
        </g>
        <path d="M415.46,233.02c.67.55,1.15.9,1.27.9" style="fill: none; stroke: #263238; stroke-linecap: round; stroke-linejoin: round; stroke-width: .99px;"/>
        <path d="M408.16,226.5s3.36,3.12,5.88,5.32" style="fill: none; stroke: #263238; stroke-linecap: round; stroke-linejoin: round; stroke-width: .99px;"/>
        <line x1="449.3" y1="259.45" x2="466.26" y2="248.78" style="fill: none; stroke: #263238; stroke-linecap: round; stroke-linejoin: round; stroke-width: .99px;"/>
        <path d="M458.96,217.86c-1.91,7.74-5.62,20.93-10.04,27.3" style="fill: none; stroke: #263238; stroke-linecap: round; stroke-linejoin: round; stroke-width: .99px;"/>
        <path d="M460.35,211.83s-.24,1.17-.69,3.09" style="fill: none; stroke: #263238; stroke-linecap: round; stroke-linejoin: round; stroke-width: .99px;"/>
        <path d="M460.35,221.92s-3.62,15.81-6.48,20.19" style="fill: none; stroke: #263238; stroke-linecap: round; stroke-linejoin: round; stroke-width: .99px;"/>
      </g>
    </g>
    <g>
      <path d="M355.98,160.56c2.49-5.27,4.53-9.63,4.74-10.26.57-1.71-7.81-16.19-7.62-16.76.19-.57,7.43-9.33,7.62-11.24s4.19-8.57,1.14-8.95c-3.05-.38-19.24,14.67-19.62,18.48-.38,3.81,7.24,16.76,8,17.91.16.24-1.5,2.35-4.23,5.58,1.06,2.59,3.65,5.86,9.96,5.25Z" style="fill: #fff; stroke: #263238; stroke-linecap: round; stroke-linejoin: round; stroke-width: .99px;"/>
      <path d="M352.67,123.33s-4.77,9.25-4.6,9.95" style="fill: none; stroke: #263238; stroke-linecap: round; stroke-linejoin: round; stroke-width: .99px;"/>
      <path d="M349.12,123.44s-5.45,7.73-5.09,8.96" style="fill: none; stroke: #263238; stroke-linecap: round; stroke-linejoin: round; stroke-width: .99px;"/>
    </g>
    <g>
      <polygon points="390.06 192.59 397.68 208.02 401.3 208.21 404.35 190.87 401.87 186.87 400.16 197.73 395.59 197.54 390.25 189.54 390.06 192.59" style="fill: #8a8a8a; stroke: #263238; stroke-linecap: round; stroke-linejoin: round; stroke-width: .99px;"/>
      <polygon points="397.68 208.02 391.37 254 398.67 269.36 406.49 253.4 401.3 208.21 397.68 208.02" style="fill: #8a8a8a; stroke: #263238; stroke-linecap: round; stroke-linejoin: round; stroke-width: .99px;"/>
      <g>
        <polygon points="396.55 205.72 402.39 202 404.2 191.71 400.76 193.9 400.16 197.73 395.59 197.54 395.42 197.3 393.11 198.77 396.55 205.72" style="fill: #263238;"/>
        <polygon points="401.3 208.21 401.31 208.16 401.23 208.2 401.3 208.21" style="fill: #263238;"/>
      </g>
      <g>
        <polygon points="402.86 221.78 395.12 226.71 393.74 236.72 403.84 230.29 402.86 221.78" style="fill: #263238;"/>
        <polygon points="402.27 216.68 401.3 208.21 401.23 208.2 397.31 210.7 395.94 220.72 402.27 216.68" style="fill: #263238;"/>
        <polygon points="404.42 235.38 392.92 242.71 391.54 252.73 405.4 243.9 404.42 235.38" style="fill: #263238;"/>
        <polygon points="403.35 259.81 406.49 253.4 405.99 248.99 392.94 257.3 396.27 264.32 403.35 259.81" style="fill: #263238;"/>
      </g>
    </g>
    <path d="M384.73,174.87s-1.52,9.33-1.33,13.53,2.29,11.62,2.29,11.62l9.33-10.67,15.62,9.72s-.57-19.81-.57-20.38-3.62-21.91-4.76-24-4.19-3.24-5.91-2.86c-1.71.38-14.67,23.05-14.67,23.05Z" style="fill: #0d419d; stroke: #263238; stroke-linecap: round; stroke-linejoin: round; stroke-width: .99px;"/>
    <g>
      <g>
        <path d="M358.41,122.84s-.49,13.95-.16,19.54c.33,5.58-.49,10.01.98,14.61,1.48,4.6,3.12,13.46,4.6,16.42s4.6,5.75,9.19,5.75,9.69-3.78,12.15-6.24c2.46-2.46,6.73-5.91,9.03-10.34,2.3-4.43.33-15.6.66-18.72.33-3.12.99-8.54.99-8.54,0,0,3.28-8.04.66-11.82-2.63-3.78-14.28-8.04-23.15-7.22-8.87.82-14.94,6.57-14.94,6.57Z" style="fill: #fff; stroke: #263238; stroke-linecap: round; stroke-linejoin: round; stroke-width: .99px;"/>
        <path d="M366.13,138.6l1.31,4.93s-3.94,11.49-2.96,12.15c.98.66,9.03-.16,9.03-.16" style="fill: none; stroke: #263238; stroke-linecap: round; stroke-linejoin: round; stroke-width: .99px;"/>
        <path d="M372.53,133.51s-.16,1.81.49,2.13c.66.33,7.06,2.79,8.04,2.46.99-.33-.33-1.64-1.15-1.97-.82-.33-7.72-4.1-7.39-2.63Z" style="fill: #263238; stroke: #263238; stroke-linecap: round; stroke-linejoin: round; stroke-width: .99px;"/>
        <path d="M366.13,136.13s-5.25,2.96-6.24,3.12c-.98.16.66-1.97.66-1.97,0,0,3.94-4.43,4.93-3.78.99.66.66,2.63.66,2.63Z" style="fill: #263238; stroke: #263238; stroke-linecap: round; stroke-linejoin: round; stroke-width: .99px;"/>
        <path d="M374.5,142.7s2.79,2.96,6.57.66" style="fill: none; stroke: #263238; stroke-linecap: round; stroke-linejoin: round; stroke-width: .99px;"/>
        <path d="M360.87,144.01s2.63,1.64,5.25-.98" style="fill: none; stroke: #263238; stroke-linecap: round; stroke-linejoin: round; stroke-width: .99px;"/>
      </g>
      <path d="M394.86,143.85c.3-2.83.86-7.53.97-8.39l-3.27-1.79s.98,12.15-.33,18.88c-1.31,6.73-3.61,8.87-6.24,9.85-2.63.99-3.94-.33-3.94-.33,0,0-6.24-5.91-11.82-6.07-4.87-.14-8.62,5.22-9.49,6.58,1.04,4.22,2.1,8.84,3.09,10.82,1.48,2.96,4.6,5.75,9.19,5.75s9.69-3.78,12.15-6.24c2.46-2.46,6.73-5.91,9.03-10.34,2.3-4.43.33-15.6.66-18.72Z" style="fill: #263238; stroke: #263238; stroke-linecap: round; stroke-linejoin: round; stroke-width: .99px;"/>
      <path d="M378.11,167s-3.45-4.93-6.73-5.75c-3.28-.82-6.73,5.58-5.58,6.73,1.15,1.15,2.79-3.12,5.91-1.81,3.12,1.31,4.93,3.45,6.4.82Z" style="fill: #fff; stroke: #263238; stroke-linecap: round; stroke-linejoin: round; stroke-width: .99px;"/>
      <path d="M357.92,114.13s-4.93-1.48-8.04.16c-3.12,1.64-4.6,5.25-4.6,5.25l6.4.49,2.96,1.48s-1.31,0-1.97,1.81c-.66,1.81-1.15,3.94-1.15,3.94,0,0,2.3-1.31,5.91-1.81,3.61-.49,10.67-2.63,10.67-2.63l.82,5.42s4.1-2.63,7.39-3.61c3.28-.99,5.25-3.12,5.25-3.12,0,0,8.54,3.28,8.37,4.76-.16,1.48-3.12,5.09-2.13,6.24.99,1.15,3.61,3.61,3.61,3.61l9.85,5.58s3.61-5.58,5.42-14.45c1.81-8.87-6.4-18.39-13.3-21.01s-11.98-1.64-16.25-1.48-10.18-1.15-10.18-1.15l3.94,4.1s-3.78,1.48-5.42,1.81c-1.64.33-4.43,1.15-5.09.82-.66-.33-2.96-1.81-2.96-1.81,0,0-1.15,4.93.49,5.58Z" style="fill: #263238; stroke: #263238; stroke-linecap: round; stroke-linejoin: round; stroke-width: .99px;"/>
      <path d="M397.48,150.74s2.46-1.31,3.78-3.28c1.31-1.97,5.09-9.52.66-11.66-3.36-1.62-5.58,1.29-6.47,2.79-.2,1.71-.44,3.75-.59,5.25-.33,3.12,1.64,14.28-.66,18.72-2.3,4.43-6.57,7.88-9.03,10.34-.95.95-2.28,2.08-3.82,3.13l4.15,1.14s1.31,4.1,4.93,8.7,6.73,7.55,6.73,7.55c0,0,.98-5.91,3.61-19.04s.66-20.69.66-20.69l-3.94-2.96Z" style="fill: #fff; stroke: #263238; stroke-linecap: round; stroke-linejoin: round; stroke-width: .99px;"/>
      <path d="M385.5,177.18l5.75,1.64-2.79,4.1s-2.3-3.78-2.96-5.75Z" style="fill: #263238; stroke: #263238; stroke-linecap: round; stroke-linejoin: round; stroke-width: .99px;"/>
    </g>
    <g>
      <path d="M420.16,172.78l4.76,119.06,10.67.76s9.14-38.48,11.81-51.62c2.67-13.14,3.62-21.53,3.43-32-.19-10.48-2.67-32.19-2.67-32.19,0,0-5.52-9.33-10.29-12.57" style="fill: #0d419d; stroke: #263238; stroke-linecap: round; stroke-linejoin: round; stroke-width: .99px;"/>
      <path d="M441.82,195.04c.99-3.11,1.57-5.12,1.57-5.12" style="fill: none; stroke: #263238; stroke-linecap: round; stroke-linejoin: round; stroke-width: .99px;"/>
      <path d="M423.02,241.73s4.57-10.67,9.91-22.48c2.91-6.43,5.75-14.56,7.75-20.63" style="fill: none; stroke: #263238; stroke-linecap: round; stroke-linejoin: round; stroke-width: .99px;"/>
      <path d="M435.69,225.61c-.3.82-.59,1.51-.86,2.03" style="fill: none; stroke: #263238; stroke-linecap: round; stroke-linejoin: round; stroke-width: .99px;"/>
      <path d="M441.3,203.83s-2.35,11.19-4.56,18.56" style="fill: none; stroke: #263238; stroke-linecap: round; stroke-linejoin: round; stroke-width: .99px;"/>
      <line x1="424.92" y1="281.36" x2="437.68" y2="281.93" style="fill: none; stroke: #263238; stroke-linecap: round; stroke-linejoin: round; stroke-width: .99px;"/>
    </g>
    <g>
      <path d="M424.92,291.83s-1.49,18.38-1.49,19.97,1.27,13.19,1.59,14.14c.32.95,8.42,6.99,9.21,6.99s5.24.48,6.04-.79c.79-1.27,1.11-2.07,0-2.38s-4.13-.16-4.13-.16l-1.75-.79s6.51-.64,6.99-.79c.48-.16,2.86-1.75,3.34-2.86.48-1.11-.32-2.38-.32-2.38,0,0,2.38-2.22,2.54-3.02.16-.79.32-3.02-.79-2.7s-2.7,2.07-2.7,2.07h-3.97s4.13-2.7,4.61-3.49c.48-.79,1.11-4.13.95-5.08-.16-.95-2.22.16-2.7,1.11s-1.27,3.49-1.27,3.49l-4.77.64-1.59-2.07s3.18-9.85,3.18-11.91-2.3-9.2-2.3-9.2l-10.67-.76Z" style="fill: #fff; stroke: #263238; stroke-linecap: round; stroke-linejoin: round; stroke-width: .99px;"/>
      <path d="M430.74,315.93s3.49,3.02,4.45,3.34c.95.32,4.29-.16,4.29-.16" style="fill: none; stroke: #263238; stroke-linecap: round; stroke-linejoin: round; stroke-width: .99px;"/>
      <path d="M428.67,319.43s5.4,4.77,6.83,4.77,8.9-1.43,8.9-1.43" style="fill: none; stroke: #263238; stroke-linecap: round; stroke-linejoin: round; stroke-width: .99px;"/>
      <path d="M427.56,323.56s3.18,3.81,4.13,4.13,2.7,1.11,2.7,1.11" style="fill: none; stroke: #263238; stroke-linecap: round; stroke-linejoin: round; stroke-width: .99px;"/>
    </g>
  </g>
</svg>