<?xml version="1.0" encoding="UTF-8"?>
<svg id="Layer_1" xmlns="http://www.w3.org/2000/svg" version="1.1" viewBox="0 0 70 70">
  <!-- Generator: Adobe Illustrator 29.0.1, SVG Export Plug-In . SVG Version: 2.1.0 Build 192)  -->
  <path d="M18,55c.7-2.4,2.2-4.5,4.2-6s4.5-2.3,7-2.3h11.7c2.5,0,5,.8,7,2.3s3.5,3.6,4.2,6M8.8,35c0,3.4.7,6.9,2,10,1.3,3.2,3.3,6.1,5.7,8.5s5.3,4.4,8.5,5.7,6.6,2,10,2,6.9-.7,10-2c3.2-1.3,6.1-3.3,8.5-5.7s4.4-5.3,5.7-8.5,2-6.6,2-10-.7-6.9-2-10c-1.3-3.2-3.3-6.1-5.7-8.5s-5.3-4.4-8.5-5.7-6.6-2-10-2-6.9.7-10,2c-3.2,1.3-6.1,3.3-8.5,5.7s-4.4,5.3-5.7,8.5-2,6.6-2,10ZM26.2,29.2c0,2.3.9,4.5,2.6,6.2,1.6,1.6,3.9,2.6,6.2,2.6s4.5-.9,6.2-2.6c1.6-1.6,2.6-3.9,2.6-6.2s-.9-4.5-2.6-6.2c-1.6-1.6-3.9-2.6-6.2-2.6s-4.5.9-6.2,2.6-2.6,3.9-2.6,6.2Z" style="fill: none; stroke: #facc15; stroke-linecap: round; stroke-linejoin: round; stroke-width: 4px;"/>
</svg>