<?xml version="1.0" encoding="UTF-8"?>
<svg id="Layer_1" xmlns="http://www.w3.org/2000/svg" xmlns:xlink="http://www.w3.org/1999/xlink" version="1.1" viewBox="0 0 500 500">
  <!-- Generator: Adobe Illustrator 29.0.1, SVG Export Plug-In . SVG Version: 2.1.0 Build 192)  -->
  <defs>
    <clipPath id="clippath">
      <path d="M352.82,209.3l-15.15,2.75-21.06,3.83-27.59,5.02c-2.23.41-4.36-1.07-4.76-3.3l-6.06-33.31c-.4-2.23,1.08-4.36,3.3-4.76l16.05-2.92,23.34-4.24,24.42-4.44c2.23-.41,4.36,1.07,4.76,3.3l6.06,33.31c.41,2.23-1.07,4.36-3.3,4.76h-.01Z" style="fill: none;"/>
    </clipPath>
  </defs>
  <g id="Speech_bubble">
    <g>
      <g>
        <path d="M237,38.65c122.78-10.93,122.98,58.34,178.3,122.87,55.32,64.53,67.16,93.79,46.3,168.19-20.85,74.39-91.13,132.71-178.07,99.67-86.94-33.04-136.74-1.31-191.57-30.65-54.84-29.34-75.2-86.03-35.06-152.85,40.14-66.81,28.7-193.75,180.09-207.23h.01Z" style="fill: #0d419d;"/>
        <path d="M237,38.65c122.78-10.93,122.98,58.34,178.3,122.87,55.32,64.53,67.16,93.79,46.3,168.19-20.85,74.39-91.13,132.71-178.07,99.67-86.94-33.04-136.74-1.31-191.57-30.65-54.84-29.34-75.2-86.03-35.06-152.85,40.14-66.81,28.7-193.75,180.09-207.23h.01Z" style="fill: #fff; isolation: isolate; opacity: .7;"/>
      </g>
      <g>
        <rect x="140.13" y="78.19" width="194.12" height="269.86" transform="translate(-22.12 27.54) rotate(-6.35)" style="fill: #fff; stroke: #263238; stroke-linecap: round; stroke-linejoin: round; stroke-width: .99px;"/>
        <rect x="127.27" y="78.9" width="194.12" height="37.34" transform="translate(-9.42 25.41) rotate(-6.35)" style="fill: #bfbfbf; stroke: #263238; stroke-linecap: round; stroke-linejoin: round; stroke-width: .99px;"/>
        <path d="M265.12,85.37l-83.28,9.26c-1.56.17-2.69,1.58-2.52,3.15s1.58,2.69,3.15,2.52l83.28-9.26c1.56-.17,2.69-1.58,2.52-3.15-.17-1.56-1.58-2.69-3.15-2.52Z" style="fill: #fff;"/>
        <path d="M245.6,99.32l-41.64,4.63c-.78.09-1.34.79-1.26,1.57.09.78.79,1.34,1.57,1.26l41.64-4.63c.78-.09,1.34-.79,1.26-1.57-.09-.78-.79-1.34-1.57-1.26Z" style="fill: #fff;"/>
        <g>
          <path d="M276.72,131.4l-109.1,12.14c-.58.06-1,.59-.94,1.17s.59,1,1.17.94l109.1-12.14c.58-.06,1-.59.94-1.17s-.59-1-1.17-.94h0Z" style="isolation: isolate; opacity: .3;"/>
          <path d="M277.56,138.97l-125.48,13.96c-.58.06-1,.59-.94,1.17s.59,1,1.17.94l125.48-13.96c.58-.06,1-.59.94-1.17s-.59-1-1.17-.94h0Z" style="isolation: isolate; opacity: .3;"/>
          <path d="M245.65,150.19l-92.73,10.31c-.58.06-1,.59-.94,1.17s.59,1,1.17.94l92.73-10.31c.58-.06,1-.59.94-1.17s-.59-1-1.17-.94h0Z" style="isolation: isolate; opacity: .3;"/>
          <g>
            <rect x="291.49" y="127.94" width="16.56" height="16.56" rx="2.71" ry="2.71" transform="translate(-13.23 33.99) rotate(-6.35)" style="fill: none; isolation: isolate; opacity: .3; stroke: #263238; stroke-linecap: round; stroke-linejoin: round; stroke-width: .99px;"/>
            <polyline points="295.29 135.88 298.92 139.32 303.72 131.98" style="fill: none; stroke: #0d419d; stroke-linecap: round; stroke-linejoin: round; stroke-width: 2.97px;"/>
          </g>
        </g>
        <g>
          <path d="M280.71,167.27l-109.1,12.14c-.58.06-1,.59-.94,1.17s.59,1,1.17.94l109.1-12.14c.58-.06,1-.59.94-1.17s-.59-1-1.17-.94h0Z" style="isolation: isolate; opacity: .3;"/>
          <path d="M281.55,174.85l-125.48,13.96c-.58.06-1,.59-.94,1.17s.59,1,1.17.94l125.48-13.96c.58-.06,1-.59.94-1.17s-.59-1-1.17-.94h0Z" style="isolation: isolate; opacity: .3;"/>
          <path d="M249.64,186.06l-92.73,10.31c-.58.06-1,.59-.94,1.17s.59,1,1.17.94l92.73-10.31c.58-.06,1-.59.94-1.17s-.59-1-1.17-.94Z" style="isolation: isolate; opacity: .3;"/>
          <g>
            <rect x="295.48" y="163.81" width="16.56" height="16.56" rx="2.71" ry="2.71" transform="translate(-17.17 34.65) rotate(-6.35)" style="fill: none; isolation: isolate; opacity: .3; stroke: #263238; stroke-linecap: round; stroke-linejoin: round; stroke-width: .99px;"/>
            <polyline points="299.28 171.75 302.91 175.19 307.71 167.85" style="fill: none; stroke: #0d419d; stroke-linecap: round; stroke-linejoin: round; stroke-width: 2.97px;"/>
          </g>
        </g>
        <g>
          <path d="M284.7,203.14l-109.1,12.14c-.58.06-1,.59-.94,1.17s.59,1,1.17.94l109.1-12.14c.58-.06,1-.59.94-1.17s-.59-1-1.17-.94h0Z" style="isolation: isolate; opacity: .3;"/>
          <path d="M285.54,210.72l-125.48,13.96c-.58.06-1,.59-.94,1.17s.59,1,1.17.94l125.48-13.96c.58-.06,1-.59.94-1.17s-.59-1-1.17-.94h0Z" style="isolation: isolate; opacity: .3;"/>
          <path d="M253.63,221.93l-92.73,10.31c-.58.06-1,.59-.94,1.17s.59,1,1.17.94l92.73-10.31c.58-.06,1-.59.94-1.17s-.59-1-1.17-.94h0Z" style="isolation: isolate; opacity: .3;"/>
          <g>
            <rect x="299.47" y="199.68" width="16.56" height="16.56" rx="2.71" ry="2.71" transform="translate(-21.11 35.31) rotate(-6.35)" style="fill: none; isolation: isolate; opacity: .3; stroke: #263238; stroke-linecap: round; stroke-linejoin: round; stroke-width: .99px;"/>
            <polyline points="303.27 207.63 306.9 211.06 311.7 203.72" style="fill: none; stroke: #0d419d; stroke-linecap: round; stroke-linejoin: round; stroke-width: 2.97px;"/>
          </g>
        </g>
        <g>
          <path d="M288.69,239.01l-109.1,12.14c-.58.06-1,.59-.94,1.17s.59,1,1.17.94l109.1-12.14c.58-.06,1-.59.94-1.17s-.59-1-1.17-.94h0Z" style="isolation: isolate; opacity: .3;"/>
          <path d="M289.53,246.59l-125.48,13.96c-.58.06-1,.59-.94,1.17.06.58.59,1,1.17.94l125.48-13.96c.58-.06,1-.59.94-1.17s-.59-1-1.17-.94h0Z" style="isolation: isolate; opacity: .3;"/>
          <path d="M257.62,257.81l-92.73,10.31c-.58.06-1,.59-.94,1.17.06.58.59,1,1.17.94l92.73-10.31c.58-.06,1-.59.94-1.17-.06-.58-.59-1-1.17-.94h0Z" style="isolation: isolate; opacity: .3;"/>
          <g>
            <rect x="303.46" y="235.56" width="16.56" height="16.56" rx="2.71" ry="2.71" transform="translate(-25.06 35.97) rotate(-6.35)" style="fill: none; isolation: isolate; opacity: .3; stroke: #263238; stroke-linecap: round; stroke-linejoin: round; stroke-width: .99px;"/>
            <polyline points="307.26 243.5 310.89 246.93 315.69 239.6" style="fill: none; stroke: #0d419d; stroke-linecap: round; stroke-linejoin: round; stroke-width: 2.97px;"/>
          </g>
        </g>
        <g>
          <path d="M292.68,274.89l-109.1,12.14c-.58.06-1,.59-.94,1.17.06.58.59,1,1.17.94l109.1-12.14c.58-.06,1-.59.94-1.17-.06-.58-.59-1-1.17-.94h0Z" style="isolation: isolate; opacity: .3;"/>
          <path d="M293.52,282.46l-125.48,13.96c-.58.06-1,.59-.94,1.17.06.58.59,1,1.17.94l125.48-13.96c.58-.06,1-.59.94-1.17-.06-.58-.59-1-1.17-.94h0Z" style="isolation: isolate; opacity: .3;"/>
          <path d="M261.61,293.68l-92.73,10.31c-.58.06-1,.59-.94,1.17.06.58.59,1,1.17.94l92.73-10.31c.58-.06,1-.59.94-1.17-.06-.58-.59-1-1.17-.94h0Z" style="isolation: isolate; opacity: .3;"/>
          <g>
            <rect x="307.45" y="271.42" width="16.56" height="16.56" rx="2.71" ry="2.71" transform="translate(-29 36.64) rotate(-6.35)" style="fill: none; isolation: isolate; opacity: .3; stroke: #263238; stroke-linecap: round; stroke-linejoin: round; stroke-width: .99px;"/>
            <polyline points="311.25 279.37 314.88 282.8 319.68 275.47" style="fill: none; stroke: #0d419d; stroke-linecap: round; stroke-linejoin: round; stroke-width: 2.97px;"/>
          </g>
        </g>
        <g>
          <path d="M295.72,302.26l-109.1,12.14c-.58.06-1,.59-.94,1.17.06.58.59,1,1.17.94l109.1-12.14c.58-.06,1-.59.94-1.17-.06-.58-.59-1-1.17-.94h0Z" style="isolation: isolate; opacity: .3;"/>
          <path d="M296.56,309.83l-125.48,13.96c-.58.06-1,.59-.94,1.17.06.58.59,1,1.17.94l125.48-13.96c.58-.06,1-.59.94-1.17-.06-.58-.59-1-1.17-.94h0Z" style="isolation: isolate; opacity: .3;"/>
          <path d="M264.65,321.05l-92.73,10.31c-.58.06-1,.59-.94,1.17.06.58.59,1,1.17.94l92.73-10.31c.58-.06,1-.59.94-1.17-.06-.58-.59-1-1.17-.94h0Z" style="isolation: isolate; opacity: .3;"/>
          <g>
            <rect x="310.51" y="298.79" width="16.56" height="16.56" rx="2.71" ry="2.71" transform="translate(-32.01 37.14) rotate(-6.35)" style="fill: none; isolation: isolate; opacity: .3; stroke: #263238; stroke-linecap: round; stroke-linejoin: round; stroke-width: .99px;"/>
            <polyline points="314.29 306.74 317.93 310.17 322.73 302.84" style="fill: none; stroke: #0d419d; stroke-linecap: round; stroke-linejoin: round; stroke-width: 2.97px;"/>
          </g>
        </g>
      </g>
      <g>
        <g>
          <path d="M227.69,204.46c-.66-1.16-1.31-1.28-2.12-.82l-1.21.68,3.11,5.49,1.21-.68c.81-.46,1.04-1.08.38-2.24l-1.38-2.43h0Z" style="fill: none;"/>
          <path d="M205.01,232.22c.13-.98-.12-2.07-.78-3.24l-1.22-2.15-2.41,1.37,1.31,2.32c.66,1.16.38,1.87-.43,2.33s-1.56.33-2.21-.83l-2.84-5c-1.01.2-2.02.4-3.03.59l3.23,5.69c1.47,2.6,3.61,3.34,6.11,1.92.44-.25.79-.53,1.1-.82-.32-.59-.06-1.47.52-1.88.2-.14.42-.23.65-.3h0Z" style="fill: #0d419d;"/>
          <path d="M191.84,224.86l.57,1.01c1.11-.02,2.23-.03,3.34-.05l-1.46-2.57c-.66-1.16-.4-1.89.41-2.35s1.57-.31,2.23.85l.99,1.74,2.41-1.37-.89-1.58c-1.47-2.6-3.61-3.34-6.11-1.92-.64.36-1.14.77-1.51,1.23.76.18,1.52.34,1.76.25-.79.3-1.58.59-2.37.89-.38,1.13-.17,2.44.64,3.87h-.01Z" style="fill: #0d419d;"/>
          <path d="M210.34,214.3c.3-.2.67-.25,1-.39,1.28-.57,1.57-2.41,1.46-3.7l-1.31-1.64-3.55,2.01,2.21,3.9c.05-.07.11-.13.18-.18h0Z" style="fill: #0d419d;"/>
          <path d="M225.44,222.1l2.41-1.37-9.2-16.22-2.28,1.29c.73.17,1.26.52,1.27,1.06-.71.1-1.59,0-2.35.14l4.63,12.01-.05.03-5.85-7.3c0,.34-.08.67-.36.86-.27.18-.65.18-.87.43-.19.21-.17.54-.35.77-.17.21-.46.28-.68.43-.3.21-.45.56-.7.83-.11.12-.27.22-.44.27l6.51,11.48,2.22-1.26-6.51-11.47.05-.03,8.36,10.42,2.41-1.37-4.88-12.6.05-.03,6.6,11.63h0Z" style="fill: #0d419d;"/>
          <path d="M231.53,207.94c.35.13.57.47.74.87.25-1.04,0-2.22-.74-3.52l-1.2-2.11c-1.47-2.6-3.53-3.3-6.07-1.85l-3.75,2.13,9.2,16.22,2.39-1.36c-.77-.49-1.63-.9-2.37-1.43-.33-.24-.64-.51-.81-.88-.17-.37-.16-.84.12-1.13.3-.32.8-.32,1.23-.17l-1.46-2.57,1.21-.68c.75-.43,1.3-.92,1.69-1.46-.5-.81-1.38-2.51-.16-2.05h-.02ZM228.69,209.14l-1.21.68-3.11-5.49,1.21-.68c.81-.46,1.46-.34,2.12.82l1.38,2.43c.66,1.16.43,1.78-.38,2.24h0Z" style="fill: #0d419d;"/>
          <path d="M245.18,210.9l-1.31-2.32-4.19,2.38-6.14-10.82c-.09.08-.18.15-.27.22-.19.15-.4.31-.64.34-.24.04-.53-.08-.59-.32-.04-.15.02-.31.05-.46.16-.83-.38-1.69-.83-2.57l-2.02,1.15,9.2,16.22,6.74-3.82h0Z" style="fill: #0d419d;"/>
          <path d="M244.03,205.27c.28-.73,1.13-1.04,1.62-1.65.05-.06.08-.13.13-.2l-.94-1.66,2.5-1.42c-.04-.13-.1-.27-.24-.42-.16-.18-1.14-.36-1.14-.36-.28-.48.11-1.21.67-1.24.17,0,.36.03.49-.08.11-.09.12-.24.13-.38l-.23-.4-3.5,1.98-2.56-4.52,4.4-2.5-1.31-2.32-6.95,3.94,6.81,12.01c.02-.27.03-.53.13-.78h-.01Z" style="fill: #0d419d;"/>
          <path d="M253.25,206.32l-1.31-2.32-4.4,2.5-1.32-2.32c-.54.51-1.08,1.02-1.62,1.53-.19.18-.38.36-.57.55l2.27,4.01,6.95-3.94h0Z" style="fill: #0d419d;"/>
          <path d="M249.97,187.49c-.04.34-.24.73-.59.76-.17.02-.33-.05-.5-.08-.3-.05-.63.03-.91-.09-.07-.03-.12-.07-.18-.11l-2.91,1.65,1.31,2.32,2.66-1.51,7.89,13.9,2.55-1.45-7.89-13.9,2.66-1.51-1.31-2.32-2.73,1.55c-.05.25-.03.52-.06.78h0Z" style="fill: #0d419d;"/>
          <path d="M261.09,197.25l1.98,3.5,2.67-1.52c.07-.17.14-.34.24-.5.51-.9,1.43-1.49,2.31-2.04.41-.26.82-.51,1.23-.77l-.82-1.44-4.4,2.5-2.69-4.75,3.5-1.98-1.31-2.32-3.5,1.98-2.56-4.52,4.4-2.5-1.31-2.32-6.95,3.94,5,8.82c1.22-.59,1.83,1.72,2.21,3.9v.02Z" style="fill: #0d419d;"/>
          <path d="M209.82,229.33c.41.08.66.49.97.76.12.11.26.19.4.26.18-.08.37-.15.55-.26,2.5-1.42,3.03-3.68,1.56-6.27l-.15-.26c-1.14-.03-2.28-.06-3.42-.1l1.11,1.96c.66,1.16.4,1.89-.41,2.35s-1.57.31-2.23-.85l-4.97-8.76c-.66-1.16-.4-1.89.41-2.35s1.57-.31,2.23.85l3.36,5.93c1.03-.25,2.09-.39,3.15-.39l-3.87-6.82c-1.47-2.6-3.68-3.3-6.18-1.88s-3.03,3.68-1.56,6.27l4.78,8.43c.86,1.52,1.98,2.37,3.25,2.55,0-.06-.03-.12-.03-.18-.05-.63.42-1.37,1.04-1.26v.02Z" style="fill: #0d419d;"/>
          <path d="M244.01,182.79l7.77-4.41c-2.23.62-4.19,2.48-6.49,2.22-.42-.05-.88-.16-1.26.02-.56.26-.68,1.05-.42,1.61.1.21.24.39.4.56Z" style="fill: #0d419d;"/>
          <path d="M224.51,193.85c0-.17,0-.35.1-.5.19.07.39.1.6.11l2.68-1.52c.44-.46.88-.92,1.43-1.24.49-.3,1.05-.47,1.6-.63.2-.06.4-.12.6-.18l4.93-2.79c.06-.1.12-.2.21-.27.07-.06.16-.08.25-.12-1.7-.52-3.41-1.03-5.11-1.55l-1.37.78c-.05.36-.1.73-.15,1.09-1.97,1.05-3.93,2.1-5.9,3.15-.6.32-1.23.65-1.91.72-.25.03-.51,0-.76,0l-8.39,4.76c.07.4.17.79.33,1.16-.49-.09-.96-.29-1.38-.57l-1.72.98c1.23.81,2.43,1.65,3.62,2.52l10.35-5.87v-.02Z" style="fill: #0d419d;"/>
          <path d="M260.44,173.47c-1.35-.76-2.7-1.52-4.05-2.28l-1.92,1.09c1.12,1.13,2.58,1.93,4.14,2.22l1.83-1.04h0Z" style="fill: #0d419d;"/>
          <path d="M282.27,197.44l-15.32-27.02c-1.24-2.18-4.01-2.95-6.19-1.71l-1.84,1.04c.23.23.47.46.7.69.74.72,1.49,1.47,2.18,2.25l.93-.53c.27-.15.61-.06.77.21l15.32,27.02c.15.27.06.61-.21.77l-20.86,11.83c1.8.1,3.63-.15,5.42.06.65.07,1.29.21,1.93.34l15.46-8.77c2.18-1.24,2.95-4.01,1.71-6.19h0Z" style="fill: #0d419d;"/>
          <path d="M188.38,231.81l-7.22-12.73c-.15-.27-.06-.61.21-.77l20.81-11.8c-.07-.16-.16-.31-.22-.47.3-.02.59.02.88.1l8.4-4.76c-.27-.09-.54-.2-.81-.3-1.32-.52-2.64-1.05-3.95-1.57l-3.16,1.79c1.15.7,2.29,1.41,3.44,2.11-1.19-.73-3.64-.83-5.75-.8l-21.58,12.24c-2.18,1.24-2.94,4.01-1.71,6.19l6.25,11.02c.29-.07.58-.14.87-.19.79-.14,1.6-.13,2.4-.12.39,0,.78,0,1.16.06h-.02Z" style="fill: #0d419d;"/>
          <path d="M214.05,236.78c.36.31.75.58,1.19.77.45.19,1.04.67.69,1.01-1.6.73-3.58.19-5.15.97-.86.42-1.69,1.24-2.61.99,1.11.67,2.11,1.52,2.96,2.5l39.31-22.3c.03-.16.05-.32.08-.48.09-.52.2-1.08.56-1.46.49-.51,1.28-.56,1.99-.57.51,0,1.04,0,1.52.15l4.89-2.78c-.66-1.16-1.47-2.24-2.38-3.23l-43.05,24.42h0Z" style="fill: #0d419d;"/>
          <path d="M207.69,243.33c-.82-.27-1.89-.82-2.57-1.48l-7.87,4.46c-.27.15-.61.06-.77-.21l-6.89-12.15c-.69-.16-1.39-.37-2.08-.23-.8.16-1.5,1.09-1.06,1.77.82,0,1.63.5,2,1.23-.43.34-.9.61-1.39.84l5.96,10.5c1.24,2.18,4.01,2.95,6.19,1.71l10.28-5.83s-.08-.05-.12-.07c-.54-.25-1.12-.36-1.68-.54h0Z" style="fill: #0d419d;"/>
        </g>
        <g style="opacity: .2;">
          <g>
            <path d="M205.01,232.22c.13-.98-.12-2.07-.78-3.24l-1.22-2.15-2.41,1.37,1.31,2.32c.66,1.16.38,1.87-.43,2.33s-1.56.33-2.21-.83l-2.84-5c-1.01.2-2.02.4-3.03.59l3.23,5.69c1.47,2.6,3.61,3.34,6.11,1.92.44-.25.79-.53,1.1-.82-.32-.59-.06-1.47.52-1.88.2-.14.42-.23.65-.3h0Z"/>
            <path d="M191.84,224.86l.57,1.01c1.11-.02,2.23-.03,3.34-.05l-1.46-2.57c-.66-1.16-.4-1.89.41-2.35s1.57-.31,2.23.85l.99,1.74,2.41-1.37-.89-1.58c-1.47-2.6-3.61-3.34-6.11-1.92-.64.36-1.14.77-1.51,1.23.76.18,1.52.34,1.76.25-.79.3-1.58.59-2.37.89-.38,1.13-.17,2.44.64,3.87h-.01Z"/>
            <path d="M210.34,214.3c.3-.2.67-.25,1-.39,1.28-.57,1.57-2.41,1.46-3.7l-1.31-1.64-3.55,2.01,2.21,3.9c.05-.07.11-.13.18-.18h0Z"/>
            <path d="M225.44,222.1l2.41-1.37-9.2-16.22-2.28,1.29c.73.17,1.26.52,1.27,1.06-.71.1-1.59,0-2.35.14l4.63,12.01-.05.03-5.85-7.3c0,.34-.08.67-.36.86-.27.18-.65.18-.87.43-.19.21-.17.54-.35.77-.17.21-.46.28-.68.43-.3.21-.45.56-.7.83-.11.12-.27.22-.44.27l6.51,11.48,2.22-1.26-6.51-11.47.05-.03,8.36,10.42,2.41-1.37-4.88-12.6.05-.03,6.6,11.63h0Z"/>
            <path d="M231.53,207.94c.35.13.57.47.74.87.25-1.04,0-2.22-.74-3.52l-1.2-2.11c-1.47-2.6-3.53-3.3-6.07-1.85l-3.75,2.13,9.2,16.22,2.39-1.36c-.77-.49-1.63-.9-2.37-1.43-.33-.24-.64-.51-.81-.88-.17-.37-.16-.84.12-1.13.3-.32.8-.32,1.23-.17l-1.46-2.57,1.21-.68c.75-.43,1.3-.92,1.69-1.46-.5-.81-1.38-2.51-.16-2.05h-.02ZM228.69,209.14l-1.21.68-3.11-5.49,1.21-.68c.81-.46,1.46-.34,2.12.82l1.38,2.43c.66,1.16.43,1.78-.38,2.24h0Z"/>
            <path d="M245.18,210.9l-1.31-2.32-4.19,2.38-6.14-10.82c-.09.08-.18.15-.27.22-.19.15-.4.31-.64.34-.24.04-.53-.08-.59-.32-.04-.15.02-.31.05-.46.16-.83-.38-1.69-.83-2.57l-2.02,1.15,9.2,16.22,6.74-3.82h0Z"/>
            <path d="M244.03,205.27c.28-.73,1.13-1.04,1.62-1.65.05-.06.08-.13.13-.2l-.94-1.66,2.5-1.42c-.04-.13-.1-.27-.24-.42-.16-.18-1.14-.36-1.14-.36-.28-.48.11-1.21.67-1.24.17,0,.36.03.49-.08.11-.09.12-.24.13-.38l-.23-.4-3.5,1.98-2.56-4.52,4.4-2.5-1.31-2.32-6.95,3.94,6.81,12.01c.02-.27.03-.53.13-.78h-.01Z"/>
            <path d="M253.25,206.32l-1.31-2.32-4.4,2.5-1.32-2.32c-.54.51-1.08,1.02-1.62,1.53-.19.18-.38.36-.57.55l2.27,4.01,6.95-3.94h0Z"/>
            <path d="M249.97,187.49c-.04.34-.24.73-.59.76-.17.02-.33-.05-.5-.08-.3-.05-.63.03-.91-.09-.07-.03-.12-.07-.18-.11l-2.91,1.65,1.31,2.32,2.66-1.51,7.89,13.9,2.55-1.45-7.89-13.9,2.66-1.51-1.31-2.32-2.73,1.55c-.05.25-.03.52-.06.78h0Z"/>
            <path d="M261.09,197.25l1.98,3.5,2.67-1.52c.07-.17.14-.34.24-.5.51-.9,1.43-1.49,2.31-2.04.41-.26.82-.51,1.23-.77l-.82-1.44-4.4,2.5-2.69-4.75,3.5-1.98-1.31-2.32-3.5,1.98-2.56-4.52,4.4-2.5-1.31-2.32-6.95,3.94,5,8.82c1.22-.59,1.83,1.72,2.21,3.9v.02Z"/>
            <path d="M209.82,229.33c.41.08.66.49.97.76.12.11.26.19.4.26.18-.08.37-.15.55-.26,2.5-1.42,3.03-3.68,1.56-6.27l-.15-.26c-1.14-.03-2.28-.06-3.42-.1l1.11,1.96c.66,1.16.4,1.89-.41,2.35s-1.57.31-2.23-.85l-4.97-8.76c-.66-1.16-.4-1.89.41-2.35s1.57-.31,2.23.85l3.36,5.93c1.03-.25,2.09-.39,3.15-.39l-3.87-6.82c-1.47-2.6-3.68-3.3-6.18-1.88s-3.03,3.68-1.56,6.27l4.78,8.43c.86,1.52,1.98,2.37,3.25,2.55,0-.06-.03-.12-.03-.18-.05-.63.42-1.37,1.04-1.26v.02Z"/>
            <path d="M244.01,182.79l7.77-4.41c-2.23.62-4.19,2.48-6.49,2.22-.42-.05-.88-.16-1.26.02-.56.26-.68,1.05-.42,1.61.1.21.24.39.4.56Z"/>
            <path d="M224.51,193.85c0-.17,0-.35.1-.5.19.07.39.1.6.11l2.68-1.52c.44-.46.88-.92,1.43-1.24.49-.3,1.05-.47,1.6-.63.2-.06.4-.12.6-.18l4.93-2.79c.06-.1.12-.2.21-.27.07-.06.16-.08.25-.12-1.7-.52-3.41-1.03-5.11-1.55l-1.37.78c-.05.36-.1.73-.15,1.09-1.97,1.05-3.93,2.1-5.9,3.15-.6.32-1.23.65-1.91.72-.25.03-.51,0-.76,0l-8.39,4.76c.07.4.17.79.33,1.16-.49-.09-.96-.29-1.38-.57l-1.72.98c1.23.81,2.43,1.65,3.62,2.52l10.35-5.87v-.02Z"/>
            <path d="M260.44,173.47c-1.35-.76-2.7-1.52-4.05-2.28l-1.92,1.09c1.12,1.13,2.58,1.93,4.14,2.22l1.83-1.04h0Z"/>
            <path d="M282.27,197.44l-15.32-27.02c-1.24-2.18-4.01-2.95-6.19-1.71l-1.84,1.04c.23.23.47.46.7.69.74.72,1.49,1.47,2.18,2.25l.93-.53c.27-.15.61-.06.77.21l15.32,27.02c.15.27.06.61-.21.77l-20.86,11.83c1.8.1,3.63-.15,5.42.06.65.07,1.29.21,1.93.34l15.46-8.77c2.18-1.24,2.95-4.01,1.71-6.19h0Z"/>
            <path d="M188.38,231.81l-7.22-12.73c-.15-.27-.06-.61.21-.77l20.81-11.8c-.07-.16-.16-.31-.22-.47.3-.02.59.02.88.1l8.4-4.76c-.27-.09-.54-.2-.81-.3-1.32-.52-2.64-1.05-3.95-1.57l-3.16,1.79c1.15.7,2.29,1.41,3.44,2.11-1.19-.73-3.64-.83-5.75-.8l-21.58,12.24c-2.18,1.24-2.94,4.01-1.71,6.19l6.25,11.02c.29-.07.58-.14.87-.19.79-.14,1.6-.13,2.4-.12.39,0,.78,0,1.16.06h-.02Z"/>
            <path d="M214.05,236.78c.36.31.75.58,1.19.77.45.19,1.04.67.69,1.01-1.6.73-3.58.19-5.15.97-.86.42-1.69,1.24-2.61.99,1.11.67,2.11,1.52,2.96,2.5l39.31-22.3c.03-.16.05-.32.08-.48.09-.52.2-1.08.56-1.46.49-.51,1.28-.56,1.99-.57.51,0,1.04,0,1.52.15l4.89-2.78c-.66-1.16-1.47-2.24-2.38-3.23l-43.05,24.42h0Z"/>
            <path d="M207.69,243.33c-.82-.27-1.89-.82-2.57-1.48l-7.87,4.46c-.27.15-.61.06-.77-.21l-6.89-12.15c-.69-.16-1.39-.37-2.08-.23-.8.16-1.5,1.09-1.06,1.77.82,0,1.63.5,2,1.23-.43.34-.9.61-1.39.84l5.96,10.5c1.24,2.18,4.01,2.95,6.19,1.71l10.28-5.83s-.08-.05-.12-.07c-.54-.25-1.12-.36-1.68-.54h0Z"/>
          </g>
        </g>
      </g>
      <path d="M163.11,207.97c6.04,4.44,11.08,25.76,11.54,45.27.46,19.5,9.85,52.45,11.02,57.85,1.18,5.4.71,13.18,7.72,2.35s27.51-29.63,36.05-23.39c8.54,6.24-5.85,27.25-13.64,38.55s-8.58,31.21-17.91,43.67-17.78,31.28-26.92,30.99c-9.15-.29-69.7,44.66-69.7,44.66l1.19-61.52,54.4-89.08,6.23-89.36h.02Z" style="fill-opacity: .7; isolation: isolate; opacity: .3;"/>
      <g>
        <path d="M234.42,293.09c-.31,1.93-10.97,16.06-17.23,26.63-6.27,10.57-12.14,28.97-13.71,31.72-1.56,2.74-20.75,19.58-26.05,26.64-5.31,7.05-14.67,10.18-24.06,16.84-6.04,4.28-24.86,26.34-37.54,41.56-7.05,8.46-12.2,14.82-12.2,14.82l-81.06-21.14s6.71-5.53,15.54-13c0,0,.03,0,.06-.04.02-.02.05-.04.09-.07,14.53-12.28,34.73-29.68,40.32-36.24,9-10.57,21.53-23.1,21.53-23.1-.76-14.68.79-28.59-.58-33.87-.71-2.76-1.99-18.47-2.94-23.3-2.41-12.34-12.87-25.13-14.05-30.17-1.17-5.04-15.02-26.55-8.28-30.52,1.41-.83,2.78-1.09,4.12-.9,9.11,1.26,16.61,23.25,21.76,28.85,1.63,1.77,3.82,4.99,6,8.43,4.08,6.46,8.08,13.73,8.08,13.73,1.56-6.27-9.79-28.59-12.93-49.73-3.13-21.14-12.14-32.5,0-33.8,1.07-.12,2.07-.02,3.01.26,8.54,2.49,12.24,20.24,17.35,37.47.48,1.58,4.37,12.96,7.39,21.73q2.01,5.85,0,.02c1.97,5.74,3.56,10.36,3.56,10.36.39-10.77-2.94-20.76-3.52-30.55-.24-3.91,1.01-19.58-.55-35.24-1.33-13.21-.72-18.57,4.44-19.61.95-.2,2.07-.24,3.36-.16,8.96.56,12.14,24.37,12.14,33.67,0,5.39.92,15.93,1.69,23.83.56,5.71,1.05,10.05,1.05,10.05,0,0,1.56-13.12.4-41.41-.27-6.2.14-10.63,2.57-12.42,1.34-.97,3.27-1.16,6.04-.41,7.83,2.12,10.37,31.13,10.37,42.1s6.27,29.76,7.44,44.56c1.18,14.8,6.31,32.96,6.31,32.96,0,0,2.9,1.18,4.85.79,1.96-.4,15.47-20.36,15.47-20.36,6.3-13.67,18.55-17.8,25.22-16.28,3.08.69,4.98,2.59,4.54,5.32v-.02Z" style="fill: #fff;"/>
        <g>
          <path d="M234.42,293.09c-.31,1.93-10.97,16.06-17.23,26.63-6.27,10.57-12.14,28.97-13.71,31.72-1.56,2.74-20.75,19.58-26.05,26.64-5.31,7.05-14.67,10.18-24.06,16.84-6.04,4.28-24.86,26.34-37.54,41.56,1.4-5.52,4.52-12.58,12.7-19.36,14.19-11.79,15.05-21.03,22.68-28.86s21.07-5.48,25.9-14.88c4.84-9.4,21.68-18.02,25.2-26.24s-3.52-9.97,2.74-19.87c6.27-9.89,12.34-12.3,11.45-16.18-.88-3.89-3.52-9.76,1.91-14.66,3.4-3.05,7.38-6.88,11.46-8.64,3.08.69,4.98,2.59,4.54,5.32v-.02Z" style="fill: #0d419d; isolation: isolate; opacity: .4;"/>
          <path d="M132.86,339.55c-2.6-1.31-.51-3.91-2.35-6.08-1.83-2.16-6.01,11.83-6.98,11.89-.98.07-3.72-7.12-4.83-7.83-1.12-.72-1.76,2.29-3.34,7.83-1.56,5.55-7.31,8.3-10.66,12.33-3.35,4.05-23.54,25.46-28.5,33.55-4.88,7.97-35.59,24.09-37.96,25.8,14.53-12.28,34.73-29.68,40.32-36.24,9-10.57,21.53-23.1,21.53-23.1-.76-14.68.79-28.59-.58-33.87-.71-2.76-1.99-18.47-2.94-23.3-2.41-12.34-12.87-25.13-14.05-30.17-1.17-5.04-15.02-26.55-8.28-30.52,1.41-.83,2.78-1.09,4.12-.9-1.53,1.09-3.03,2.65-1.63,4.92,2.48,4.02,5.22,8.25,5.22,12.69s7.57,10.7,10.51,14.81c2.94,4.12.2,2.68,2.16,8.36,1.95,5.69,4.31,4.49,5.47,10.24,1.18,5.75,7.7,9.4,6.66,16.56-1.05,7.16,3.13,17.11,3.13,17.11,0,0,3.4-9.65,2.16-14.88-1.24-5.22.2-11.75-.95-13.51-1.03-1.58-3.7-12.33-4.97-19.02,4.08,6.46,8.08,13.73,8.08,13.73,1.56-6.27-9.79-28.59-12.93-49.73-3.13-21.14-12.14-32.5,0-33.8,1.07-.12,2.07-.02,3.01.26,5.18,9.67,1.57,16.87.43,21.02-1.26,4.57,6.23,16.31,7.33,24.4,1.03,7.55,3.03,6.77,3.3,6.63-.23.21-2.16,2.18-1.01,7.78,1.22,5.96,9.92,20.04,9.92,23.98s-.71,10.42-.71,12.34,6.98,14.77,7.76,18.13-.33-6.48,1.56-9.87c1.9-3.4,2.89-15.33,3.14-14.69,3.2,8.38-.52,44.45-3.14,43.14h0Z" style="fill: #0d419d; isolation: isolate; opacity: .4;"/>
          <path d="M138.47,251.1c-2.22,3.36-2.16,29.55-5.97,29.64-1.83.04-2.72-6.58-3.46-14.85,1.97,5.74,3.56,10.36,3.56,10.36.39-10.77-2.94-20.76-3.52-30.55-.24-3.91,1.01-19.58-.55-35.24-1.33-13.21-.72-18.57,4.44-19.61,1.09,3.52,3.76,7.68,4.44,11.54.93,5.33-.89,9.73-2.45,10.39-1.57.67-1.83,4.1.13,4.6,1.95.5-.05,25.5.91,28.75.95,3.24,4.7,1.6,2.47,4.96h0Z" style="fill: #0d419d; isolation: isolate; opacity: .4;"/>
          <path d="M158.81,221.78c-4.07,1.79-4.29,5-5.5,9.6s1.74,11.32,0,21.89,4.61,17.37,0,29.19-2.44-9.86-3.22-19.8c-.32-4.07-.2-9.47.06-14.47.56,5.71,1.05,10.05,1.05,10.05,0,0,1.56-13.12.4-41.41-.27-6.2.14-10.63,2.57-12.42,4.18,3.75,8.11,15.85,4.64,17.37h0Z" style="fill: #0d419d; isolation: isolate; opacity: .4;"/>
        </g>
        <g>
          <path d="M103.62,451.29s40.33-49.73,49.73-56.39,18.76-9.78,24.06-16.84,24.49-23.89,26.06-26.63c1.57-2.74,7.44-21.15,13.71-31.72s16.92-24.69,17.23-26.63c1.37-8.62-20.56-9.01-29.76,10.96,0,0-13.51,19.97-15.47,20.36s-4.85-.79-4.85-.79c0,0-5.13-18.16-6.31-32.97-1.17-14.81-7.44-33.6-7.44-44.57s-2.55-39.97-10.38-42.1c-7.83-2.12-9.01,3.25-8.61,12.83,1.17,28.29-.39,41.41-.39,41.41,0,0-2.74-24.58-2.74-33.87s-3.18-33.1-12.14-33.67c-8.22-.52-9.37,4.1-7.8,19.77,1.57,15.67.32,31.33.56,35.24.59,9.79,3.92,19.78,3.52,30.54,0,0-10.18-29.48-10.96-32.11-5.67-19.11-9.61-38.88-20.36-37.72-12.14,1.3-3.13,12.66,0,33.81,3.13,21.15,14.49,43.47,12.92,49.73,0,0-9.39-17.06-14.08-22.16-5.9-6.42-14.9-34.42-25.87-27.96-6.75,3.98,7.1,25.48,8.27,30.52s11.64,17.83,14.05,30.18c.94,4.83,2.22,20.54,2.94,23.3,1.37,5.29-.18,19.19.59,33.87,0,0-12.53,12.53-21.54,23.1s-56,49.34-56,49.34" style="fill: none; stroke: #263238; stroke-linecap: round; stroke-linejoin: round; stroke-width: .99px;"/>
          <path d="M184.34,323.63s2.98,6.07,0,13.9" style="fill: none; stroke: #263238; stroke-linecap: round; stroke-linejoin: round; stroke-width: .99px;"/>
          <path d="M187.63,324.46s3.9,2.7,2.34,7.4" style="fill: none; stroke: #263238; stroke-linecap: round; stroke-linejoin: round; stroke-width: .99px;"/>
          <path d="M151.2,258.23s3.13,22.13,1.76,26.24" style="fill: none; stroke: #263238; stroke-linecap: round; stroke-linejoin: round; stroke-width: .99px;"/>
          <path d="M132.6,276.25s.59,3.33,0,6.46" style="fill: none; stroke: #263238; stroke-linecap: round; stroke-linejoin: round; stroke-width: .99px;"/>
          <path d="M114.2,289.95s.59,3.33,0,4.11" style="fill: none; stroke: #263238; stroke-linecap: round; stroke-linejoin: round; stroke-width: .99px;"/>
          <path d="M213.47,308.75s3.54,1.92,4.7,4.7" style="fill: none; stroke: #263238; stroke-linecap: round; stroke-linejoin: round; stroke-width: .99px;"/>
          <path d="M132.73,216.82s3.59,1.07,6.53-1.77" style="fill: none; stroke: #263238; stroke-linecap: round; stroke-linejoin: round; stroke-width: .99px;"/>
          <path d="M133.97,248.64s7.05,2.35,9.59,0" style="fill: none; stroke: #263238; stroke-linecap: round; stroke-linejoin: round; stroke-width: .99px;"/>
          <path d="M156.88,255.49s4.7-1.76,7.83-.78" style="fill: none; stroke: #263238; stroke-linecap: round; stroke-linejoin: round; stroke-width: .99px;"/>
          <path d="M112.04,261.76s3.72-4.9,6.66-3.52" style="fill: none; stroke: #263238; stroke-linecap: round; stroke-linejoin: round; stroke-width: .99px;"/>
          <path d="M96.77,276.25s-3.33,1.57-4.31,3.23" style="fill: none; stroke: #263238; stroke-linecap: round; stroke-linejoin: round; stroke-width: .99px;"/>
          <path d="M100.1,357.7s1.57-1.76,2.15-2.94-.2-13.71,0-21.73" style="fill: none; stroke: #263238; stroke-linecap: round; stroke-linejoin: round; stroke-width: .99px;"/>
          <path d="M141.18,407.01c-4.62,5.16-18.76,14.52-24.44,20.2" style="fill: none; stroke: #263238; stroke-linecap: round; stroke-linejoin: round; stroke-width: .99px;"/>
          <path d="M159.82,289.95c-2.35,6.66.2,15.08,0,18.8s-1,20.75-1,20.75" style="fill: none; stroke: #263238; stroke-linecap: round; stroke-linejoin: round; stroke-width: .99px;"/>
          <path d="M138.48,289.95c-3.13,5.29-2.15,12.34-1.17,15.86s.11,17.82.11,17.82" style="fill: none; stroke: #263238; stroke-linecap: round; stroke-linejoin: round; stroke-width: .99px;"/>
          <path d="M104.8,306.79c-.59,5.29,1.96,9.99,1.96,9.99" style="fill: none; stroke: #263238; stroke-linecap: round; stroke-linejoin: round; stroke-width: .99px;"/>
          <path d="M124.18,296.41c-1.76,6.46.59,9.4.78,10.38" style="fill: none; stroke: #263238; stroke-linecap: round; stroke-linejoin: round; stroke-width: .99px;"/>
        </g>
      </g>
      <path d="M283.22,253.71l-3.33-19.36c-.63-3.63,1.9-7.05,5.55-7.52l7.47-.96s-2.49-5.06,5.53-19.83c8.03-14.77,46.62-53.89,75.88,11.88s56,199.79,56,199.79c0,0-78.98-91.95-81.49-96.66-2.51-4.71-26.56-1.9-32.11-14.54s-17.21-48.71-17.21-48.71l-9.03,1.23c-3.46.47-6.66-1.88-7.26-5.32h0Z" style="fill-opacity: .7; isolation: isolate; opacity: .3;"/>
      <g>
        <g>
          <g>
            <path d="M352.82,209.3l-15.15,2.75-21.06,3.83-27.59,5.02c-2.23.41-4.36-1.07-4.76-3.3l-6.06-33.31c-.4-2.23,1.08-4.36,3.3-4.76l16.05-2.92,23.34-4.24,24.42-4.44c2.23-.41,4.36,1.07,4.76,3.3l6.06,33.31c.41,2.23-1.07,4.36-3.3,4.76h-.01Z" style="fill: #0d419d;"/>
            <g style="clip-path: url(#clippath);">
              <g>
                <path d="M342.1,187.19l-4.43,24.87-21.06,3.83c-6.1-2.68-16.15-7.35-18.16-9.85-2.4-2.96-2.06-20.47-.9-29.42l23.34-4.24c8.23,5.62,21.22,14.81,21.22,14.81h-.01Z" style="fill-opacity: .7; isolation: isolate; opacity: .3;"/>
                <path d="M293.21,220.14l-4.19.76c-2.23.41-4.36-1.07-4.76-3.3l-6.06-33.31c-.4-2.23,1.08-4.36,3.3-4.76l4.18-.76c-2.22.42-3.69,2.53-3.29,4.76l6.06,33.31c.41,2.23,2.53,3.7,4.76,3.3h0Z" style="fill-opacity: .7; isolation: isolate; opacity: .3;"/>
              </g>
            </g>
            <path d="M352.82,209.3l-15.15,2.75-21.06,3.83-27.59,5.02c-2.23.41-4.36-1.07-4.76-3.3l-6.06-33.31c-.4-2.23,1.08-4.36,3.3-4.76l16.05-2.92,23.34-4.24,24.42-4.44c2.23-.41,4.36,1.07,4.76,3.3l6.06,33.31c.41,2.23-1.07,4.36-3.3,4.76h-.01Z" style="fill: none; stroke: #263238; stroke-linecap: round; stroke-linejoin: round; stroke-width: .99px;"/>
          </g>
          <rect x="284.82" y="172.66" width="73.04" height="42.04" rx="4.09" ry="4.09" transform="translate(-29.45 60.58) rotate(-10.3)" style="fill: none; stroke: #263238; stroke-linecap: round; stroke-linejoin: round; stroke-width: .99px;"/>
          <rect x="287.52" y="175.29" width="64.83" height="37.32" rx="1.98" ry="1.98" transform="translate(-29.52 60.33) rotate(-10.3)" style="fill: none; stroke: #263238; stroke-linecap: round; stroke-linejoin: round; stroke-width: .99px;"/>
          <path d="M357.01,208.54l-4.16.75c2.21-.42,3.67-2.53,3.27-4.75l-6.06-33.31c-.41-2.23-2.53-3.7-4.76-3.3l4.19-.76c2.23-.4,4.36,1.08,4.76,3.3l6.06,33.31c.4,2.23-1.08,4.36-3.3,4.76Z" style="fill: none; stroke: #263238; stroke-linecap: round; stroke-linejoin: round; stroke-width: .99px;"/>
        </g>
        <g>
          <path d="M477.44,315.24l-41.02,109.96s-17.14-32.63-32.98-62.9c-12.65-24.17-24.47-46.84-26.06-50.18-3.57-7.51-15.74-23.25-15.74-23.25,0,0-12.52-7.17-18.25-19.65-5.72-12.49-12.04-57.14-12.04-57.14,0,0-16.46-6.2-20.39-8.93-3.94-2.72-7.51-27.78-7.51-30.64s3.93-8.59,3.93-8.59c0,0-.88-4.2,4.15-8.43,1.34-1.13,3.1-2.27,5.41-3.32.03-.02.07-.03.1-.05,0,0-.65-9.47,4.28-12.23.23-.13.48-.25.73-.35,4.39-1.69,18.79-3.88,18.79-3.88,0,0,3.41-3.06,6.98-4.03,2.55-.7,16.57,2.55,24.4,4.48,3.15.77,5.3,1.33,5.3,1.33,0,0,13.24.6,15.75,2.1,2.01,1.2,4.03,3.28,4.75,4.05h0c.15.18.25.29.25.29,0,0,11.81,2.45,14.31,6.78,2.5,4.32,3.57,25.79,1.79,39.73-1.79,13.96,1.42,37.62,1.42,37.62,0,0,3.69,18.28,6.55,25.22,2.86,6.94,55.11,62,55.11,62h-.01Z" style="fill: #fff;"/>
          <path d="M403.44,362.3c-12.65-24.17-24.47-46.84-26.06-50.18-3.57-7.51-15.74-23.25-15.74-23.25,0,0-12.52-7.17-18.25-19.65-5.72-12.49-12.04-57.14-12.04-57.14,0,0-16.46-6.2-20.39-8.93-3.94-2.72-7.51-27.78-7.51-30.64s3.93-8.59,3.93-8.59c0,0-.88-4.2,4.15-8.43,0,1.13.02,3.03-.04,6.02-.12,5.67,6.56,39.87,8.22,38.83,1.65-1.05,4.21-3.54,3.53-5.75,0,0-3.24-13.27-6.3-42.42.03-.02.07-.03.1-.05,0,0-.65-9.47,4.28-12.23-.88,2.39-1.57,4.77-1.61,6.42-.11,4.61,5.37,44.14,7.52,45.14,2.16.99,7.59-4.27,7.59-4.27,0,0-1.86-11.22-1.2-16,0,0,16.56,10.1,17.06,21.56.05,1.26,3.23,19.22,3.23,19.22,0,0-14.24,27.12.3,51.87,0,0-7.39-4.43-9.16-11.48,0,0-2.15,20.73,13.13,31.71,0,0,10.96-10.76,21.73-12.13,0,0,.2.71-7.05,6.42-7.25,5.71-8.23,8.26-8.23,8.26,0,0,7.84-7.9,14.11-8.26,0,0-6.46,7.47-6.27,9.04.19,1.56,18.48,32.82,25.13,54.63,2.79,9.15,4.64,15.72,5.85,20.26v.02Z" style="fill: #0d419d; isolation: isolate; opacity: .4;"/>
          <path d="M352.1,154.84s5.27,3.91,6.84,0,1.7-6.65,1.7-6.65c0,0,2.02-.94,3.98,3.94,1.96,4.87,21.29,6.13,25.82,8.64s6.34,0,6.34,0c0,0,3.68,2.81,1.48,7.36-2.19,4.55,4.03,4.94,6.44,1.61s.55,9.57-5.42,10.85c0,0,.18,5.64-3.66,9.52h3.25s-8.67,6.87-10.98,7.25,8.59,4.23,6.56,5.04c-2.02.81-7.74.74-7.74.74,0,0,3.7,2.56,3.73,4.26.03,1.69-1.75,2.97-2.55,1.56s-7.19-21.69-10.38-29.18-16.39-13.38-25.4-24.92v-.02Z" style="fill: #0d419d; isolation: isolate; opacity: .4;"/>
          <path d="M398,143.6c-11.11-3.04-26-7.36-26-7.36,0,0,.07-.04.21-.11,3.15.77,5.3,1.33,5.3,1.33,0,0,13.24.6,15.75,2.1,2.01,1.2,4.03,3.28,4.75,4.05h0Z" style="fill: #0d419d; isolation: isolate; opacity: .4;"/>
          <path d="M382.34,161.07c-9.66-1.97-16.57,6.27-16.57,6.27,0,0,9.61,8.69,11.74,12.43,2.14,3.75,5.66,16.31,5.66,16.31,4.05.65,11.52-3.52,13.31-14.61s-4.47-18.43-14.13-20.4h0Z" style="fill: #0d419d;"/>
          <g>
            <path d="M436.42,425.19s-55.46-105.56-59.04-113.07c-3.58-7.51-15.74-23.26-15.74-23.26,0,0-12.52-7.16-18.25-19.65s-12.04-57.14-12.04-57.14c0,0-16.46-6.19-20.4-8.92s-7.51-27.78-7.51-30.64,3.94-8.59,3.94-8.59c0,0-1.43-6.79,9.66-11.8,0,0-.72-10.38,5.01-12.59,4.4-1.69,18.79-3.88,18.79-3.88,0,0,3.4-3.05,6.98-4.03,3.58-.98,29.7,5.82,29.7,5.82,0,0,13.24.6,15.74,2.09,2.5,1.49,5.01,4.35,5.01,4.35,0,0,11.81,2.46,14.31,6.77,2.5,4.32,3.58,25.79,1.79,39.74-1.79,13.96,1.42,37.61,1.42,37.61,0,0,3.69,18.28,6.55,25.22,2.86,6.94,55.1,61.99,55.1,61.99" style="fill: none; stroke: #263238; stroke-linecap: round; stroke-linejoin: round; stroke-width: .99px;"/>
            <path d="M389.49,210.63s-2.5-.54-5.73-12.34c-3.22-11.81-4.07-17.33-10.73-24.33-4.73-4.98-15.57-13.03-20.93-19.11-5.37-6.08-11.27-10.95-15.92-7.23-3.71,2.96-6.12,10.69-2.86,22.58,4.18,15.28,17.35,22.56,17.35,22.56l3.23,19.23s-14,28.05,1.79,54.53" style="fill: none; stroke: #263238; stroke-linecap: round; stroke-linejoin: round; stroke-width: .99px;"/>
            <path d="M365.77,167.34s6.91-8.24,16.57-6.27,15.92,9.3,14.13,20.4c-1.79,11.09-9.26,15.26-13.31,14.61" style="fill: none; stroke: #263238; stroke-linecap: round; stroke-linejoin: round; stroke-width: .99px;"/>
            <path d="M340.83,135.66s-1.65,3.7-3.33,11.24" style="fill: none; stroke: #263238; stroke-linecap: round; stroke-linejoin: round; stroke-width: .99px;"/>
            <path d="M334.95,174.43s.83,12.22,2.55,15.98,4.58,6.8,5.83,11.63,1.43,12.34,1.79,13.42c.36,1.07,2.43,1.36,2.43,1.36,2.94.07,4.16-1.48,5.87-3.83" style="fill: none; stroke: #263238; stroke-linecap: round; stroke-linejoin: round; stroke-width: .99px;"/>
            <path d="M317.03,152.13s2.68,26.11,4.83,37.21c2.15,11.09,5.9,12.7,12.17,16.28,6.26,3.58,9.66,10.91,10.2,11.99.54,1.07,2.58,1.22,2.58,1.22,1.89.04,4.92-1.7,5.77-3.77" style="fill: none; stroke: #263238; stroke-linecap: round; stroke-linejoin: round; stroke-width: .99px;"/>
            <path d="M307.37,163.93c-.67,1.03,5.06,27.55,8.05,35.25,2.99,7.69,3.33,8.94,11.24,11.09,7.9,2.15,13.91,5.8,16.06,4.52" style="fill: none; stroke: #263238; stroke-linecap: round; stroke-linejoin: round; stroke-width: .99px;"/>
            <path d="M362.3,149.26s4.11,9.84,1.39,16.31" style="fill: none; stroke: #263238; stroke-linecap: round; stroke-linejoin: round; stroke-width: .99px;"/>
            <path d="M377.5,137.45s10.56,4.29,20.75,6.44" style="fill: none; stroke: #263238; stroke-linecap: round; stroke-linejoin: round; stroke-width: .99px;"/>
            <path d="M404.7,171.45s-3.15,5.76-7.92,6.99" style="fill: none; stroke: #263238; stroke-linecap: round; stroke-linejoin: round; stroke-width: .99px;"/>
            <path d="M396.77,165.18s-1.13,2.93-2.33,3.79" style="fill: none; stroke: #263238; stroke-linecap: round; stroke-linejoin: round; stroke-width: .99px;"/>
            <path d="M400.74,188.8s-7.16,5.42-14.03,6.82" style="fill: none; stroke: #263238; stroke-linecap: round; stroke-linejoin: round; stroke-width: .99px;"/>
            <path d="M383.77,198.28s2.93,3.76,10.68,4.12" style="fill: none; stroke: #263238; stroke-linecap: round; stroke-linejoin: round; stroke-width: .99px;"/>
            <path d="M360.64,181.87s7.01-6.72,11.01-5.8" style="fill: none; stroke: #263238; stroke-linecap: round; stroke-linejoin: round; stroke-width: .99px;"/>
            <path d="M374.32,183.24s-5.3,3.99-6.27,3.95" style="fill: none; stroke: #263238; stroke-linecap: round; stroke-linejoin: round; stroke-width: .99px;"/>
            <path d="M319.69,204.19s1.76.33,3.13-1.79" style="fill: none; stroke: #263238; stroke-linecap: round; stroke-linejoin: round; stroke-width: .99px;"/>
            <path d="M325.96,194.6s4.25-2.64,7.04-3.15" style="fill: none; stroke: #263238; stroke-linecap: round; stroke-linejoin: round; stroke-width: .99px;"/>
            <path d="M363.46,283.88c.88-.78,9.1-7.44,14.19-9.79" style="fill: none; stroke: #263238; stroke-linecap: round; stroke-linejoin: round; stroke-width: .99px;"/>
            <path d="M374.13,280.74c-.59-.18-5.26,4.71-7.72,6.67" style="fill: none; stroke: #263238; stroke-linecap: round; stroke-linejoin: round; stroke-width: .99px;"/>
            <path d="M376.48,295.24s15.66,29.67,19.19,41.56" style="fill: none; stroke: #263238; stroke-linecap: round; stroke-linejoin: round; stroke-width: .99px;"/>
            <path d="M422.33,253.24c1.33,7.3,5.64,12.67,7.99,15.59" style="fill: none; stroke: #263238; stroke-linecap: round; stroke-linejoin: round; stroke-width: .99px;"/>
          </g>
          <path d="M372.94,163.93c-2.28,1.4.12,5.99,1.38,8.34,1.26,2.35,6.94,6.07,8.11,9.59,1.17,3.52,8.61,3.43,10.87,0,2.25-3.43,1.98-10.27-4.2-15.47-6.18-5.2-12.94-4.45-16.17-2.47h.01Z" style="fill: #fff; isolation: isolate; opacity: .4;"/>
        </g>
      </g>
      <g>
        <path d="M329.47,361.2c-24.62-4.19-47.99,12.37-52.18,37-3,17.61,4.62,34.57,18.21,44.34" style="fill: none; stroke: #263238; stroke-linecap: round; stroke-linejoin: round; stroke-width: .99px;"/>
        <path d="M348.33,369.09c-4.12-2.97-8.79-5.28-13.88-6.75" style="fill: none; stroke: #263238; stroke-linecap: round; stroke-linejoin: round; stroke-width: .99px;"/>
        <path d="M343.79,445.35c11.6-6.43,20.28-17.88,22.68-31.97,2.54-14.89-2.52-29.33-12.37-39.33" style="fill: none; stroke: #263238; stroke-linecap: round; stroke-linejoin: round; stroke-width: .99px;"/>
        <polyline points="345.96 459.62 348.66 462 344.46 447.62" style="fill: none; stroke: #263238; stroke-linecap: round; stroke-linejoin: round; stroke-width: .99px;"/>
        <path d="M314.29,450.38c6.89,1.17,13.68.72,19.98-1.08l8.52,7.52" style="fill: none; stroke: #263238; stroke-linecap: round; stroke-linejoin: round; stroke-width: .99px;"/>
        <path d="M303.92,447.31c1.67.72,3.4,1.35,5.18,1.87" style="fill: none; stroke: #263238; stroke-linecap: round; stroke-linejoin: round; stroke-width: .99px;"/>
        <g>
          <path d="M325.45,383.79c12.39,2.11,20.73,13.87,18.62,26.26-2.11,12.39-13.87,20.73-26.26,18.62-12.39-2.11-20.73-13.87-18.62-26.26,1.64-9.64,9.12-16.83,18.2-18.55" style="fill: none; stroke: #263238; stroke-linecap: round; stroke-linejoin: round; stroke-width: .99px;"/>
          <path d="M317.4,431.09c-13.73-2.34-22.96-15.36-20.63-29.09" style="fill: none; stroke: #263238; stroke-linecap: round; stroke-linejoin: round; stroke-width: .99px;"/>
          <path d="M345.36,414.8c-3.17,8.81-10.99,15.07-20.09,16.4" style="fill: none; stroke: #263238; stroke-linecap: round; stroke-linejoin: round; stroke-width: .99px;"/>
          <path d="M298.71,395.71c4.64-10.13,15.65-16.29,27.15-14.33,13.73,2.34,22.96,15.36,20.63,29.09" style="fill: none; stroke: #263238; stroke-linecap: round; stroke-linejoin: round; stroke-width: .99px;"/>
          <line x1="336.77" y1="397.15" x2="337.05" y2="396.83" style="fill: none; stroke: #263238; stroke-linecap: round; stroke-linejoin: round; stroke-width: 1.98px;"/>
          <line x1="332.73" y1="401.5" x2="334.74" y2="399.33" style="fill: none; stroke: #263238; stroke-linecap: round; stroke-linejoin: round; stroke-width: 1.98px;"/>
          <polyline points="308.07 404.69 317.79 417.6 330.96 403.4" style="fill: none; stroke: #263238; stroke-linecap: round; stroke-linejoin: round; stroke-width: 1.98px;"/>
        </g>
      </g>
    </g>
  </g>
</svg>