<?xml version="1.0" encoding="UTF-8"?>
<svg id="Table" xmlns="http://www.w3.org/2000/svg" version="1.1" viewBox="0 0 500 500">
  <!-- Generator: Adobe Illustrator 29.0.1, SVG Export Plug-In . SVG Version: 2.1.0 Build 192)  -->
  <defs>
    <style>
      .st0, .st1, .st2, .st3, .st4, .st5, .st6, .st7, .st8, .st9, .st10, .st11, .st12, .st13 {
        stroke: #0d419d;
        stroke-miterlimit: 10;
      }

      .st0, .st2, .st3, .st5, .st6, .st9, .st11, .st13 {
        stroke-width: 1.6px;
      }

      .st1, .st3, .st11 {
        fill: #ebebeb;
      }

      .st2, .st12 {
        fill: #c7c7c7;
      }

      .st4 {
        fill: #dbdbdb;
      }

      .st5 {
        opacity: .2;
      }

      .st5, .st11, .st13 {
        isolation: isolate;
      }

      .st6 {
        fill: #0d419d;
      }

      .st14 {
        opacity: .4;
      }

      .st15, .st13 {
        opacity: .1;
      }

      .st7, .st9 {
        fill: #fff;
      }

      .st8 {
        fill: #455a64;
      }

      .st10 {
        fill: #263238;
      }

      .st11 {
        opacity: .8;
      }
    </style>
  </defs>
  <g>
    <rect class="st12" x="101.8" y="38" width=".9" height="127.6"/>
    <g>
      <polygon class="st1" points="146.6 208.2 143 216.1 61.6 216.1 58 208.2 92.7 184.2 111.9 184.2 146.6 208.2"/>
      <polygon class="st4" points="114.3 161.1 111.9 184.2 92.7 184.2 90.3 161.1 114.3 161.1"/>
      <polygon class="st4" points="146.6 208.3 143 216.1 61.6 216.1 58 208.3 146.6 208.3"/>
    </g>
  </g>
  <g>
    <rect class="st1" x="398.1" y="99" width="24.9" height="10.5"/>
    <rect class="st1" x="412" y="85.8" width="24.9" height="10.5"/>
    <rect class="st1" x="105.8" y="245.4" width="24.9" height="10.5"/>
    <rect class="st1" x="119.7" y="232.1" width="24.9" height="10.5"/>
    <rect class="st1" x="133.5" y="245.4" width="24.9" height="10.5"/>
    <rect class="st1" x="63" y="85.8" width="24.9" height="10.5"/>
    <rect class="st1" x="76.9" y="371" width="24.9" height="10.5"/>
    <rect class="st1" x="63" y="357.7" width="24.9" height="10.5"/>
    <rect class="st1" x="412" y="371" width="24.9" height="10.5"/>
  </g>
  <g>
    <g>
      <g>
        <path class="st8" d="M270.5,432.5c-4.2.1-8.9.4-12.3-2.3-3.2-2.5-6.1-6.2-5.6-10.5.1-1.2.4-2,1.7-1.5,2,.8,3.5,3,4.9,4.5,1.8,2,3.7,3.9,5.8,5.5,1.5,1.1,3.1,2.1,4.6,3.2.2.1.4.3.6.4l.2.2h.3c0,.1,0,.3-.2.3h0v.2Z"/>
        <path class="st7" d="M270.7,432.2c-3.7,0-7.6.1-10.6-2.4-1.4-1.2-2.5-2.6-3.4-4.1-.4-.7-1.7-2.8-1.2-3.6,1-1.5,5.3,4.6,5.9,5.1,2.3,2.2,5.1,3.5,8.1,4.2.2.1.4.3.6.4-2.1-.5-4.2-1.2-6.1-2.3-2.6-1.6-4.1-3.9-6.1-6-.4-.5-1.8-2-2.3-1.1-.3.6.9,2.7,1.2,3.1.9,1.4,2,2.8,3.2,4,2.9,2.6,6.9,2.5,10.6,2.6h0Z"/>
      </g>
      <g>
        <path class="st8" d="M272.8,435c0,.2,0,.3-.1.5h0c0,.1-.2.1-.2.1h0v-.2h0c-.7-2.8-1-5.6-1.8-8.4-.8-2.6-1.7-5.2-2.2-7.9-.3-1.7-1.5-10.2,2.2-9.2,1.7.5,2.8,2.9,3.4,4.3.9,1.9,1.3,4,1.4,6.1.3,5.2-1.6,10-2.7,14.9h0v-.2Z"/>
        <path class="st7" d="M274,424.4c0-2-.1-3.9-.6-5.8-.2-.7-1-3.8-2-3.7-.7,0-.8,1.4-.9,1.9-.2,1.9.4,3.8.8,5.7.8,3.8,1.2,7.6,1.4,11.4,0,.2,0,.5-.1.7v1s.1.1.2,0v-.5.4h0v-.4h0v-.6c.5-3.3,1.1-6.6,1.2-10h0ZM272.8,433c-.1-2.2-.3-4.5-.6-6.7-.2-1.8-.6-3.6-1-5.3-.2-1-.4-2-.5-3,0-.8,0-3.7,1.6-1.9,1.1,1.3,1.3,4.1,1.5,5.6.1,1.8,0,3.5-.1,5.3-.2,2-.5,4-.8,6h-.1Z"/>
      </g>
      <g>
        <path class="st8" d="M275.1,446.5h-.1c-3.8-.2-8.9.2-12.1-2.4-2.4-1.9-4.7-5.6-3.9-8.7.9-3.5,5.6.7,6.9,1.7,3.2,2.6,9.4,9,9.4,9.1h0s0,.1-.1.1v.2Z"/>
        <path class="st7" d="M275.2,446.4c-.2-.1-.4-.3-.7-.4-2.5-1.6-5-3.3-7.3-5.1-.6-.5-4.9-4.3-5.6-2.9-.4.8,1,2.5,1.5,3.1.8,1,1.8,1.9,2.9,2.6,2.5,1.6,5.6,1.9,8.5,2.7.1,0,.3,0,.4.1h0s.2,0,.1-.1h.2ZM267.6,444.2c-1.2-.5-2.3-1.3-3.3-2.2-.6-.6-2.9-2.9-2.3-3.8.3-.5.6-.2,1.2,0,.3.1.5.3.8.5.6.4,1.2.9,1.8,1.4,1,.8,2.1,1.6,3.2,2.5,1.8,1.3,3.6,2.5,5.5,3.7-2.3-.7-4.7-1-6.9-2h0Z"/>
      </g>
      <g>
        <path class="st8" d="M282.1,438.6c-1,4.4-3.3,8.4-6.6,11.5h-.2v-.2l.2-.2c.6-5.2,1.3-10.4,1.9-15.6.1-1.2,1.1-9.1,3.5-7.8,1.5.8,1.6,4,1.7,5.4.2,2.3,0,4.7-.5,6.9h0Z"/>
        <path class="st7" d="M280.7,431.6c-.1-.4-.4-.9-.8-.6-.9.6-1.3,4.3-1.5,5.3-.6,4.2-1.6,8.2-2.6,12.3,0,.3-.2.7-.2,1s-.2.2-.2.3c0,0,.1.1.2,0h0c.1-.2.2-.4.3-.5h0c1.6-2.2,2.9-4.8,3.8-7.4.5-1.7.9-3.4,1.1-5.1.2-1.6.5-3.8,0-5.4h0ZM275.8,449.3s-.1.1-.1.2c0-.1,0-.3.1-.4,1-3.1,1.8-6.3,2.3-9.5.3-1.6.5-3.3.8-4.9.1-.7.5-2.6,1-3,.5-.3.6.5.6.9v1.2c0,5.7-1.7,11-4.8,15.6h.1Z"/>
      </g>
      <path class="st8" d="M276.1,461.3h-.8v-2c0-2.7-.2-5.4-.4-8.2,0-1.5-.2-3.1-.4-4.6v-1c-.4-3.4-1.1-6.8-2.6-10-.5-1.1-1-2.1-1.6-3.1,0-.1-.1-.2-.2-.3h0c0-.1-.1-.2-.2-.3,0,0,0-.1-.1-.2-1.8-3.1-3.8-6.1-5.7-9.1-.5-.9-1.1-1.7-1.6-2.6,0,0,0-.1-.1-.2,0,0,0-.1-.1-.2-2.4-3.8-4.8-7.6-7.3-11.4-.1-.1.1-.3.2-.1,1.7,2.5,3.4,4.9,5.2,7.4.2.3.5.7.7,1,.5.6.9,1.3,1.4,1.9.9,1.3,1.8,2.6,2.7,3.9,2.5,3.7,5,7.4,7,11.4.1.3.3.6.4.9,0,.2.2.4.3.6.1.2.2.4.3.7,1.7,3.9,2.3,7.9,2.6,12.1v1.8h0v1c.1,2.7.2,5.4.2,8.1v2.6h.1Z"/>
      <g>
        <path class="st8" d="M253.3,412c-2.1-2.8-4.8-8.6-1.7-11.7,1.2-1.2,3-1.3,4.4-.3,1.6,1.2,2.4,3.4,2.9,5.3,1.4,4.9,2.4,10,4.1,14.8,0,0,.1.4.2.5,0,.1-.1.1-.2,0,0-.2-.1-.3-.2-.5-3.3-2.4-7.1-4.8-9.6-8.2h.1Z"/>
        <path class="st7" d="M263,420.1h0c-.7-1.2-1.4-2.4-2-3.6-1.2-2.6-2.1-5.3-3-8.1-.3-1.1-1.8-6.2-3.7-4.2-.8.9-.7,2.4-.6,3.5.2,1.7.8,3.4,1.6,4.9,1.7,3,4.2,5.3,7,7.3.1.1.2.2.4.3h0c0,.1.1.1.2.1h0v-.2ZM262.2,419.5c-2.2-1.7-4.3-3.6-5.9-5.9-.8-1.2-1.5-2.5-1.9-3.9-.2-.6-.3-1.3-.4-1.9,0-.5-.1-1,0-1.5,0-1.1.5-2.2,1.1-2.3.8-.1,1,.3,1.6,1.2.2.3.3.6.5.9.3.8.6,1.6.9,2.5.4,1.4.9,2.7,1.4,4.1.3.9.7,1.8,1.1,2.7.7,1.5,1.4,3,2.3,4.5-.1-.1-.3-.2-.4-.3h-.3Z"/>
      </g>
    </g>
    <g>
      <g>
        <g>
          <path class="st8" d="M418.3,419.9c-.4,2.8-.9,5.6-1.5,8.3-.3,1.6-.7,3.1-1,4.7-.4,1.7-.9,3.5-.4,5.2h0v.2h0c0,.1-.3.1-.4,0h0c-.3-.5-.5-1.3-.6-1.6-.5-1.3-1-2.7-1.4-4-.8-2.8-1.3-5.7-1.4-8.6,0-2.6.2-5.2.8-7.8.5-2,1.2-5.1,2.7-6.6s2.5.9,2.9,2c.9,2.6.5,5.6.1,8.2h.2Z"/>
          <path class="st7" d="M415.8,414c-1,0-1.8,3.3-2.1,4.7-.6,2.2-.9,4.5-.9,6.9,0,4.2.8,8.3,2.1,12.2,0,.2.1.3.2.5h0c0,.3.3.3.4.1,0-.3-.1-.7-.2-1v-.9c-.3-3.3.2-6.8.6-10.1.5-3.9,1.3-12.4,0-12.4h-.1ZM415.1,437.1c0,.5.1.9.2,1.3-.1-.3-.2-.6-.3-1-1.1-3.5-1.8-7.1-1.9-10.7,0-2,0-4.1.5-6.1.2-1.1.5-2.2.8-3.2.1-.4.9-3.2,1.5-3.1.4.1.5,2.6.5,2.6v1.5c0,1,0,2-.2,3.1-.2,2.2-.5,4.4-.8,6.6-.4,2.9-.7,6-.4,9h0Z"/>
        </g>
        <g>
          <path class="st8" d="M434.3,427.6c-1.9,3.6-5,6.4-8.3,8.8-1.7,1.3-3.5,2.5-5.3,3.7-1.5,1-3.3,2.1-4.6,3.5l-.2.2c-.4.4-.7.9-1,1.3h0v.2h0v-.2h0v-.2h0v-.2c.5-4.3,3.5-8.6,6-11.9s5.6-6.2,9.5-7.7c1-.4,3.2-1.4,4.2-.6.9.7.1,2.2-.3,2.9h0v.2Z"/>
          <path class="st7" d="M431.5,427.6c-.9-.9-3.5,1.3-4.2,1.8-2,1.5-3.7,3.4-5.4,5.3-2.8,3.1-5.2,6.3-6.9,10h0v.3h0c0,.1,0,0,.1,0,.3-.4.7-.8,1-1.2l.2-.2c2.4-2.6,5.3-4.8,8.1-7.1,1.9-1.6,3.8-3.3,5.4-5.2.4-.5,2.6-3,1.8-3.7h-.1ZM430.6,429.6c-2.2,3.7-6,6.3-9.3,9-2.2,1.8-4.4,3.7-6.2,5.9,1.6-3.3,4-6.3,6.4-9,1.4-1.6,2.8-3.1,4.4-4.5.8-.8,1.7-1.5,2.7-2.1.4-.3,1.3-.8,1.8-1,1.2-.4.5,1.1.2,1.8h0Z"/>
        </g>
        <g>
          <path class="st8" d="M414.4,453.9s-.1.1-.2.1h0c-3.5-3.5-6.8-7.8-8.5-12.5-.7-2-1.2-4-1.2-6.1s-.1-4.3,1.1-5.4c2.5-2.1,4.7,6.8,5.1,8.2.6,2.5,1,5,1.6,7.4.6,2.7,1.4,5.3,2.2,8h0c0,.1-.1.3-.1.3Z"/>
          <path class="st7" d="M414.4,453.9c-.1-.2-.3-.5-.4-.7-2.1-3.8-3.5-7.7-4.5-12-.5-2.1-.8-4.2-1.6-6.2-.2-.5-.8-2.4-1.6-1.4-.4.5,0,4.1.1,5,.4,2.1,1.1,4.2,2,6.1,1.5,3.3,3.4,6.4,5.7,9.2,0,0,.1.2.2.2h0s.2,0,.2-.1h-.1ZM409.4,446.2c-1-1.9-1.8-3.9-2.4-5.9-.2-.8-.4-1.6-.5-2.5,0-.7-.2-1.3-.2-2,0-1.6.1-2,.4-2.1.2,0,.4.1.9,1.1.3.6.5,1.3.7,2,.2,1,.5,1.9.7,2.9.4,1.9.8,3.9,1.4,5.8.8,2.7,1.9,5.4,3.4,7.8-1.6-2.2-3.1-4.5-4.4-7h0Z"/>
        </g>
        <g>
          <path class="st8" d="M425.5,445.4c-.3,1.7-1.2,3.3-2.3,4.7-2,2.8-4.7,5.2-6.9,7.9-.3.4-.7.8-1,1.2l-.3.6s0-.2.1-.6h0c.4-1.9,1.5-7.5,3-10.5s2-3.6,3.3-5.1c.6-.7,2.1-2.3,3.2-1.9,1.2.4,1,2.8.8,3.7h0Z"/>
          <path class="st7" d="M423.7,444.2c-1.2-.8-4.3,4.8-4.7,5.5-1.5,2.6-2.7,5.5-3.5,8.4-.1.3-.2.7-.3,1,0,.4-.1.6-.1.6,0,0,.3-.5.3-.6l.2-.2c.3-.3.5-.7.8-1,1.3-2,2.7-4,4-6,.9-1.5,1.8-3,2.5-4.6.2-.4,1.4-2.8.8-3.1h0ZM423.4,445.8c-1.7,4.8-5.2,8.6-7.9,12.9,0,0,0,.1-.1.2,0-.1,0-.2.1-.4.7-2.4,1.6-4.8,2.8-7,.7-1.4,1.5-2.7,2.4-4,.5-.7.9-1.5,1.5-2.1.2-.3,1-1,1.2-.9.3.2.1.9,0,1.2h0Z"/>
        </g>
        <g>
          <path class="st8" d="M437.6,405.7c-3.6,8.2-12.9,12-17,19.9h0c-.1.2-.2.5-.4.7,0,.1-.2.1-.3,0h0v-.3c.6-4.9,2.7-10,5-14.4,2-3.8,4.9-7.3,8.8-9.3,1-.5,2.8-1.5,3.9-.7,1.1.9.4,2.9,0,4h0Z"/>
          <path class="st7" d="M434.4,406c-.5-.3-1.1,0-1.5.3-1,.5-1.9,1.1-2.7,1.9-1.7,1.5-3.1,3.2-4.3,5.1-2,3.2-3.9,6.7-5.1,10.3-.3.8-.5,1.7-.7,2.5v.3h.3c.1-.2.2-.5.3-.7h0c.7-1.6,1.5-3.2,2.5-4.7,1.6-2.3,3.5-4.3,5.3-6.3.7-.8,7.5-7.4,5.9-8.5h0v-.2ZM433.8,407.9c-1.1,1.9-2.8,3.5-4.2,5.1-1.5,1.6-3,3.3-4.4,5-1.1,1.3-2.2,2.8-3.1,4.3-.8,1.2-1.4,2.6-2,4,.4-1.4.9-2.8,1.4-4.1h0c1-2.4,2.2-4.7,3.5-6.9h0c1.1-2,2.4-3.9,4-5.5s1.8-1.7,2.8-2.4c1.2-.8,2.2-1.2,2.5-.9.2.3-.1,1-.4,1.6h0v-.2Z"/>
        </g>
      </g>
      <path class="st8" d="M425.1,415.3c-1.1,2.3-2.1,4.6-3.1,7-.5,1.1-1,2.2-1.4,3.3h0c-.2.4-.3.8-.5,1.2-1.5,3.6-3.2,7.3-4.2,11.1-.5,2-.7,4.1-.9,6.2v.6h0v5.9c0,2.5.2,4.9.5,7.3v1c0,.8.1,1.6.2,2.3h-.8c-.5-2.4-.8-4.8-.9-7.2h0v-3.9c0-4,0-8.2.9-12.1v-.3h0v-.7c.2-.2.2-.4.3-.7v-.2c1-3.4,2.6-6.7,4.1-10,.3-.6.5-1.2.8-1.8.2-.3.3-.6.5-1,.2-.5.5-1,.7-1.5h0c1.1-2.3,2.3-4.6,3.5-6.9,0-.1.2,0,.2,0h0v.4Z"/>
    </g>
  </g>
  <g>
    <g>
      <rect class="st6" x="129.5" y="133.6" width="241.1" height="17.2"/>
      <g>
        <rect class="st6" x="141.4" y="150.8" width="217.2" height="10.8"/>
        <polygon class="st5" points="358.6 155 141.4 157.4 141.4 150.8 358.6 150.8 358.6 155"/>
      </g>
    </g>
    <g>
      <rect class="st6" x="129.5" y="444.8" width="241.1" height="17.2"/>
      <g>
        <rect class="st6" x="141.4" y="434" width="217.2" height="10.8"/>
        <polygon class="st5" points="141.4 440.6 358.6 438.2 358.6 444.8 141.4 444.8 141.4 440.6"/>
      </g>
    </g>
    <g class="st14">
      <path class="st3" d="M331.1,365.5c8.7,12.1,12.6,68.5,12.6,68.5h-187.3s3.9-56.4,12.6-68.5c13.9-19.3,72.8-60.7,72.8-70.2v-3.5c-.4-9.7-58.9-50.9-72.8-70.1-8.7-12.1-12.6-60.2-12.6-60.2h187.3s-3.9,48.1-12.6,60.2c-13.9,19.3-72.8,60.7-72.8,70.2v3.5c.4,9.7,58.9,50.9,72.8,70.1h0Z"/>
      <path class="st2" d="M344.1,434.4h-188.1v-.4c.2-2.3,4-56.7,12.7-68.7,6.6-9.1,22.9-22.9,38.7-36.3,16.7-14.2,34-28.8,34-33.6v-3.5c-.2-4.9-16.6-18.8-34-33.5-15.8-13.4-32.2-27.2-38.8-36.4-8.7-12-12.5-58.4-12.7-60.4v-.4h188.1v.4c-.2,2-4,48.4-12.7,60.4-6.6,9.1-22.9,22.9-38.7,36.3-16.7,14.2-34,28.8-34,33.6v3.5c.2,4.9,16.6,18.8,34,33.5,15.8,13.4,32.2,27.2,38.8,36.4h0c8.7,12,12.5,66.4,12.7,68.7v.4h0ZM156.8,433.6h186.5c-.4-5.2-4.3-56.6-12.5-67.9h0c-6.5-9-22.8-22.9-38.6-36.2-18.2-15.4-34-28.8-34.2-34.1v-3.5c0-5.2,15.9-18.7,34.2-34.2,15.8-13.4,32.1-27.2,38.6-36.2,8.1-11.3,12.1-54.8,12.5-59.6h-186.5c.4,4.7,4.4,48.3,12.5,59.6,6.5,9,22.8,22.9,38.6,36.2,18.2,15.4,34,28.8,34.2,34.1v3.5c0,5.2-15.9,18.7-34.2,34.2-15.8,13.4-32.1,27.2-38.6,36.2-8.2,11.3-12.1,62.7-12.5,67.9h0Z"/>
    </g>
    <path class="st11" d="M321.5,361.5c8.2,11.4,11.8,72.5,11.8,72.5h-165.6s3.6-61.1,11.8-72.5c13.1-18.1,68.5-57.1,68.5-66v-3.3c-.4-9.1-55.5-47.9-68.5-65.9-8.2-11.4-11.8-64.9-11.8-64.9h165.6s-3.6,53.6-11.8,64.9c-13.1,18.1-68.5,57.1-68.5,66v3.3c.4,9.1,55.5,47.9,68.5,65.9Z"/>
    <g>
      <g>
        <path class="st6" d="M331.4,434h-162.8s66.4-80.6,81.4-80.6,81.4,80.6,81.4,80.6Z"/>
        <path class="st13" d="M331.4,434h-162.8s66.4-80.6,81.4-80.6,81.4,80.6,81.4,80.6Z"/>
      </g>
      <g class="st15">
        <path class="st0" d="M288.9,420.5c0,.6-.5,1.2-1.2,1.2s-1.2-.5-1.2-1.2.5-1.2,1.2-1.2,1.2.5,1.2,1.2Z"/>
        <path class="st0" d="M206.8,406c0,.6-.5,1.2-1.2,1.2s-1.2-.5-1.2-1.2.5-1.2,1.2-1.2,1.2.5,1.2,1.2Z"/>
        <path class="st0" d="M291.6,415.8c0,.5-.4.9-.9.9s-.9-.4-.9-.9.4-.9.9-.9.9.4.9.9Z"/>
        <path class="st0" d="M280.6,384.8c0,.5-.4.9-.9.9s-.9-.4-.9-.9.4-.9.9-.9.9.4.9.9Z"/>
        <path class="st0" d="M188.7,423.9c0,.5-.4.9-.9.9s-.9-.4-.9-.9.4-.9.9-.9.9.4.9.9Z"/>
        <path class="st0" d="M238.5,378.9c0,.5-.4.9-.9.9s-.9-.4-.9-.9.4-.9.9-.9.9.4.9.9Z"/>
        <path class="st0" d="M236.8,372.9c0,.3-.3.6-.6.6s-.6-.3-.6-.6.3-.6.6-.6.6.3.6.6Z"/>
        <path class="st0" d="M249.2,414.4c0,.3-.3.6-.6.6s-.6-.3-.6-.6.3-.6.6-.6.6.3.6.6Z"/>
        <path class="st0" d="M212.4,418.3c0,.3-.3.6-.6.6s-.6-.3-.6-.6.3-.6.6-.6.6.3.6.6Z"/>
        <path class="st0" d="M287.2,393.7c0,.3-.3.6-.6.6s-.6-.3-.6-.6.3-.6.6-.6.6.3.6.6Z"/>
        <circle class="st0" cx="302.8" cy="423.3" r=".6"/>
      </g>
    </g>
    <g>
      <g>
        <path class="st6" d="M251.4,346.9c0,3.3,3.6,9.6,3.6,9.6h-8.7s3.6-6.4,3.6-9.6v-38.9c0-20.7-1.7-23.5-3.3-26-4.2-2.5-10.2-8-16.6-14.4h41.4c-6.4,6.5-12.4,11.9-16.6,14.4h0c-1.6,2.5-3.3,5.4-3.3,26v38.9h0Z"/>
        <path class="st13" d="M251.4,346.9c0,3.3,3.6,9.6,3.6,9.6h-8.7s3.6-6.4,3.6-9.6v-38.9c0-20.7-1.7-23.5-3.3-26-4.2-2.5-10.2-8-16.6-14.4h41.4c-6.4,6.5-12.4,11.9-16.6,14.4h0c-1.6,2.5-3.3,5.4-3.3,26v38.9h0Z"/>
      </g>
      <g class="st15">
        <path class="st0" d="M245.1,272.6c0-.5.4-.9.9-.9s.9.4.9.9-.4.9-.9.9-.9-.4-.9-.9Z"/>
        <path class="st0" d="M241.2,275.6c0-.3.3-.6.6-.6s.6.3.6.6-.3.6-.6.6-.6-.3-.6-.6Z"/>
        <path class="st0" d="M263.3,271.2c0-.3.3-.6.6-.6s.6.3.6.6-.3.6-.6.6-.6-.3-.6-.6Z"/>
      </g>
    </g>
    <path class="st9" d="M175.8,425.4c-.7-10.7-.4-21.4.4-32.1.4-5.3,1-10.6,2-16.1.3-1.4.5-2.7.9-4.2l.3-1.1v-.5c.2-.2.3-.5.4-.7.4-1,.8-1.7,1.2-2.4,1.7-2.7,3.4-4.8,5.2-7,7.2-8.3,15.1-15.4,23.3-22.3,8.2-6.8,16.8-13.2,26-18.8-6.7,8.4-13.8,16.3-21,24.1-7.2,7.7-14.6,15.3-21.3,23-1.6,1.9-3.3,3.9-4.4,5.7-.2.4-.5.9-.6,1.1,0,0,0,.1-.1.2v.4c-.1,0-.4.8-.4.8-.4,1.1-.6,2.4-1,3.5-1.2,5-2.3,10.1-3.4,15.3-2.2,10.3-4.5,20.7-7.6,31h.1Z"/>
    <path class="st9" d="M235.6,269.5c-8.8-6-16.9-12.8-24.9-19.6-7.9-6.9-15.6-14.1-23.1-21.5l-1.4-1.4-.7-.7c-.3-.3-.4-.4-.8-.9-1.4-1.6-2.1-3-2.8-4.4-1.3-2.8-2.1-5.4-2.9-8-1.4-5.3-2.5-10.5-3.2-15.8-1.5-10.5-2.2-21.1-1.7-31.8,3.4,10.1,6.1,20.2,8.9,30.2s2.8,10,4.5,14.7c.8,2.4,1.7,4.7,2.7,6.6.5,1,1.1,1.9,1.4,2.2l2.7,2.6c7.4,7.4,14.6,15,21.6,22.9,6.9,7.9,13.7,16,19.8,24.8h-.1Z"/>
  </g>
  <polygon class="st10" points="54.5 461.5 103.4 461.3 152.2 461.2 250 461.1 347.8 461.2 396.6 461.3 445.5 461.5 396.6 461.8 347.8 461.8 250 462 152.2 461.8 103.4 461.8 54.5 461.5"/>
</svg>